<?xml version="1.0" encoding="UTF-8" standalone="no"?>
<svg
   xmlns:dc="http://purl.org/dc/elements/1.1/"
   xmlns:cc="http://creativecommons.org/ns#"
   xmlns:rdf="http://www.w3.org/1999/02/22-rdf-syntax-ns#"
   xmlns:svg="http://www.w3.org/2000/svg"
   xmlns="http://www.w3.org/2000/svg"
   xmlns:sodipodi="http://sodipodi.sourceforge.net/DTD/sodipodi-0.dtd"
   xmlns:inkscape="http://www.inkscape.org/namespaces/inkscape"
   style="fill-opacity:1; color-rendering:auto; color-interpolation:auto; text-rendering:auto; stroke:black; stroke-linecap:square; stroke-miterlimit:10; shape-rendering:auto; stroke-opacity:1; fill:black; stroke-dasharray:none; font-weight:normal; stroke-width:1; font-family:'Dialog'; font-style:normal; stroke-linejoin:miter; font-size:12px; stroke-dashoffset:0; image-rendering:auto;"
   width="793"
   height="512"
   version="1.1"
   id="svg239"
   sodipodi:docname="correlation_prediction.svg"
   inkscape:version="1.0.2-2 (e86c870879, 2021-01-15)">
  <metadata
     id="metadata243">
    <rdf:RDF>
      <cc:Work
         rdf:about="">
        <dc:format>image/svg+xml</dc:format>
        <dc:type
           rdf:resource="http://purl.org/dc/dcmitype/StillImage" />
      </cc:Work>
    </rdf:RDF>
  </metadata>
  <sodipodi:namedview
     pagecolor="#ffffff"
     bordercolor="#666666"
     borderopacity="1"
     objecttolerance="10"
     gridtolerance="10"
     guidetolerance="10"
     inkscape:pageopacity="0"
     inkscape:pageshadow="2"
     inkscape:window-width="1440"
     inkscape:window-height="837"
     id="namedview241"
     showgrid="false"
     inkscape:zoom="1.3085937"
     inkscape:cx="613.95209"
     inkscape:cy="307.23557"
     inkscape:window-x="-8"
     inkscape:window-y="-8"
     inkscape:window-maximized="1"
     inkscape:current-layer="svg239" />
  <!--Generated by the Batik Graphics2D SVG Generator-->
  <defs
     id="genericDefs" />
  <g
     id="g237">
    <defs
       id="defs1">
      <clipPath
         clipPathUnits="userSpaceOnUse"
         id="clipPath1">
        <path
           d="M 0,0 H 793 V 512 H 0 Z"
           id="path3" />
      </clipPath>
    </defs>
    <g
       style="fill:#ffffff;stroke:#ffffff"
       id="g9">
      <rect
         x="0"
         y="0"
         width="793"
         style="stroke:none"
         height="512"
         clip-path="url(#clipPath1)"
         id="rect7" />
    </g>
    <g
       style="color-interpolation:sRGB;fill:#ffffff;stroke:#ffffff;color-rendering:optimizeSpeed;image-rendering:optimizeSpeed;shape-rendering:crispEdges;text-rendering:optimizeSpeed"
       id="g15">
      <rect
         x="0"
         width="793"
         height="512"
         y="0"
         style="stroke:none"
         id="rect11" />
      <path
         style="stroke:none"
         d="M 103,435 H 718 V 38 H 103 Z"
         id="path13" />
    </g>
    <g
       style="color-interpolation:linearRGB;fill:#262626;fill-opacity:0.149;stroke:#262626;stroke-width:0.6667;stroke-linecap:butt;stroke-linejoin:round;stroke-opacity:0.149;color-rendering:optimizeQuality;image-rendering:optimizeQuality;text-rendering:geometricPrecision"
       id="g77">
      <line
         y2="38"
         style="fill:none"
         x1="103"
         x2="103"
         y1="435"
         id="line17" />
      <line
         y2="38"
         style="fill:none"
         x1="200.88029"
         x2="200.88029"
         y1="435"
         id="line19" />
      <line
         y2="38"
         style="fill:none"
         x1="298.76059"
         x2="298.76059"
         y1="435"
         id="line21" />
      <line
         y2="38"
         style="fill:none"
         x1="396.6409"
         x2="396.6409"
         y1="435"
         id="line23" />
      <line
         y2="38"
         style="fill:none"
         x1="494.52109"
         x2="494.52109"
         y1="435"
         id="line25" />
      <line
         y2="38"
         style="fill:none"
         x1="592.40143"
         x2="592.40143"
         y1="435"
         id="line27" />
      <line
         y2="38"
         style="fill:none"
         x1="690.28168"
         x2="690.28168"
         y1="435"
         id="line29" />
      <line
         y2="435"
         style="fill:none"
         x1="718"
         x2="103"
         y1="435"
         id="line31" />
      <line
         y2="373.9231"
         style="fill:none"
         x1="718"
         x2="103"
         y1="373.9231"
         id="line33" />
      <line
         y2="312.84619"
         style="fill:none"
         x1="718"
         x2="103"
         y1="312.84619"
         id="line35" />
      <line
         y2="251.7692"
         style="fill:none"
         x1="718"
         x2="103"
         y1="251.7692"
         id="line37" />
      <line
         y2="190.69231"
         style="fill:none"
         x1="718"
         x2="103"
         y1="190.69231"
         id="line39" />
      <line
         y2="129.6154"
         style="fill:none"
         x1="718"
         x2="103"
         y1="129.6154"
         id="line41" />
      <line
         y2="68.538498"
         style="fill:none"
         x1="718"
         x2="103"
         y1="68.538498"
         id="line43" />
      <line
         x1="103"
         x2="718"
         y1="435"
         style="fill:none;fill-opacity:1;stroke-linecap:square;stroke-opacity:1"
         y2="435"
         id="line45" />
      <line
         x1="103"
         x2="718"
         y1="38"
         style="fill:none;fill-opacity:1;stroke-linecap:square;stroke-opacity:1"
         y2="38"
         id="line47" />
      <line
         x1="103"
         x2="103"
         y1="435"
         style="fill:none;fill-opacity:1;stroke-linecap:square;stroke-opacity:1"
         y2="428.85001"
         id="line49" />
      <line
         x1="200.88029"
         x2="200.88029"
         y1="435"
         style="fill:none;fill-opacity:1;stroke-linecap:square;stroke-opacity:1"
         y2="428.85001"
         id="line51" />
      <line
         x1="298.76059"
         x2="298.76059"
         y1="435"
         style="fill:none;fill-opacity:1;stroke-linecap:square;stroke-opacity:1"
         y2="428.85001"
         id="line53" />
      <line
         x1="396.6409"
         x2="396.6409"
         y1="435"
         style="fill:none;fill-opacity:1;stroke-linecap:square;stroke-opacity:1"
         y2="428.85001"
         id="line55" />
      <line
         x1="494.52109"
         x2="494.52109"
         y1="435"
         style="fill:none;fill-opacity:1;stroke-linecap:square;stroke-opacity:1"
         y2="428.85001"
         id="line57" />
      <line
         x1="592.40143"
         x2="592.40143"
         y1="435"
         style="fill:none;fill-opacity:1;stroke-linecap:square;stroke-opacity:1"
         y2="428.85001"
         id="line59" />
      <line
         x1="690.28168"
         x2="690.28168"
         y1="435"
         style="fill:none;fill-opacity:1;stroke-linecap:square;stroke-opacity:1"
         y2="428.85001"
         id="line61" />
      <line
         x1="103"
         x2="103"
         y1="38"
         style="fill:none;fill-opacity:1;stroke-linecap:square;stroke-opacity:1"
         y2="44.150002"
         id="line63" />
      <line
         x1="200.88029"
         x2="200.88029"
         y1="38"
         style="fill:none;fill-opacity:1;stroke-linecap:square;stroke-opacity:1"
         y2="44.150002"
         id="line65" />
      <line
         x1="298.76059"
         x2="298.76059"
         y1="38"
         style="fill:none;fill-opacity:1;stroke-linecap:square;stroke-opacity:1"
         y2="44.150002"
         id="line67" />
      <line
         x1="396.6409"
         x2="396.6409"
         y1="38"
         style="fill:none;fill-opacity:1;stroke-linecap:square;stroke-opacity:1"
         y2="44.150002"
         id="line69" />
      <line
         x1="494.52109"
         x2="494.52109"
         y1="38"
         style="fill:none;fill-opacity:1;stroke-linecap:square;stroke-opacity:1"
         y2="44.150002"
         id="line71" />
      <line
         x1="592.40143"
         x2="592.40143"
         y1="38"
         style="fill:none;fill-opacity:1;stroke-linecap:square;stroke-opacity:1"
         y2="44.150002"
         id="line73" />
      <line
         x1="690.28168"
         x2="690.28168"
         y1="38"
         style="fill:none;fill-opacity:1;stroke-linecap:square;stroke-opacity:1"
         y2="44.150002"
         id="line75" />
    </g>
    <g
       transform="translate(103,443)"
       style="font-size:26.6667px;font-family:mwa_cmr10;color-interpolation:linearRGB;fill:#262626;stroke:#262626;color-rendering:optimizeQuality;image-rendering:optimizeQuality;text-rendering:geometricPrecision"
       id="g81">
      <path
         style="stroke:none"
         d="m 0.0833,22.9937 q -3.3125,0 -4.5,-2.7266 -1.1875,-2.7266 -1.1875,-6.4766 0,-2.3437 0.4219,-4.414 0.4219,-2.0703 1.6953,-3.5157 1.2735,-1.4453 3.5703,-1.4453 1.7813,0 2.9141,0.8672 1.1328,0.8672 1.7266,2.25 0.5937,1.3828 0.8125,2.9531 0.2187,1.5704 0.2187,3.3047 0,2.3282 -0.4297,4.3516 -0.4297,2.0234 -1.6797,3.4375 -1.25,1.4141 -3.5625,1.4141 z m 0,-0.7032 q 1.5,0 2.2422,-1.539 0.7422,-1.5391 0.9141,-3.4141 0.1719,-1.875 0.1719,-3.9844 0,-2.0312 -0.1719,-3.7422 Q 3.0677,7.8999 2.3333,6.5093 1.599,5.1187 0.0833,5.1187 q -1.5312,0 -2.2656,1.3984 -0.7344,1.3984 -0.9062,3.1016 -0.1719,1.7031 -0.1719,3.7343 0,1.5 0.0703,2.836 0.0703,1.3359 0.3828,2.75 0.3125,1.414 1.0234,2.3828 0.711,0.9687 1.8672,0.9687 z"
         id="path79" />
    </g>
    <g
       transform="translate(200.8803,443)"
       style="font-size:26.6667px;font-family:mwa_cmr10;color-interpolation:linearRGB;fill:#262626;stroke:#262626;color-rendering:optimizeQuality;image-rendering:optimizeQuality;text-rendering:geometricPrecision"
       id="g85">
      <path
         style="stroke:none"
         d="m -4.1667,22.3999 v -0.9531 q 3.375,0 3.375,-0.8594 V 6.4155 Q -2.1823,7.0874 -4.3229,7.0874 V 6.1499 q 3.3125,0 5,-1.7344 h 0.375 q 0.0937,0 0.1797,0.0703 0.0859,0.0704 0.0859,0.1641 v 15.9375 q 0,0.8594 3.375,0.8594 v 0.9531 z"
         id="path83" />
    </g>
    <g
       transform="translate(298.7606,443)"
       style="font-size:26.6667px;font-family:mwa_cmr10;color-interpolation:linearRGB;fill:#262626;stroke:#262626;color-rendering:optimizeQuality;image-rendering:optimizeQuality;text-rendering:geometricPrecision"
       id="g89">
      <path
         style="stroke:none"
         d="m -5.3229,22.3999 v -0.7187 q 0,-0.0782 0.0469,-0.1563 l 4.2031,-4.6406 Q -0.1198,15.853 0.4661,15.1577 1.0521,14.4624 1.638,13.5562 2.224,12.6499 2.5599,11.7046 2.8958,10.7593 2.8958,9.6968 2.8958,8.603 2.4818,7.5874 2.0677,6.5718 1.263,5.9702 0.4583,5.3687 -0.6979,5.3687 q -1.1719,0 -2.1094,0.7031 -0.9375,0.7031 -1.3125,1.8281 0.1094,-0.0312 0.2813,-0.0312 0.6093,0 1.039,0.4062 0.4297,0.4063 0.4297,1.0625 0,0.6094 -0.4297,1.0391 -0.4297,0.4297 -1.039,0.4297 -0.625,0 -1.0547,-0.4375 -0.4297,-0.4375 -0.4297,-1.0313 0,-1.0156 0.3828,-1.9062 0.3828,-0.8907 1.1016,-1.586 0.7187,-0.6953 1.625,-1.0625 0.9062,-0.3672 1.9218,-0.3672 1.5313,0 2.8672,0.6563 1.336,0.6562 2.1094,1.8437 0.7734,1.1875 0.7734,2.7813 0,1.1875 -0.5156,2.2422 -0.5156,1.0547 -1.3125,1.914 -0.7969,0.8594 -2.0547,1.9532 -1.2578,1.0937 -1.6484,1.4687 l -3.0625,2.9375 h 2.5937 q 1.9219,0 3.2032,-0.0312 1.2812,-0.0313 1.3593,-0.1094 0.3282,-0.3281 0.6563,-2.4844 h 0.7812 l -0.7656,4.8125 z"
         id="path87" />
    </g>
    <g
       transform="translate(396.6409,443)"
       style="font-size:26.6667px;font-family:mwa_cmr10;color-interpolation:linearRGB;fill:#262626;stroke:#262626;color-rendering:optimizeQuality;image-rendering:optimizeQuality;text-rendering:geometricPrecision"
       id="g93">
      <path
         style="stroke:none"
         d="m -4.0885,20.3218 q 0.625,0.9219 1.6953,1.3672 1.0703,0.4453 2.289,0.4453 1.5782,0 2.2344,-1.336 0.6563,-1.3359 0.6563,-3.039 0,-0.7656 -0.1407,-1.5313 Q 2.5052,15.4624 2.1771,14.8062 1.849,14.1499 1.2786,13.7515 0.7083,13.353 -0.1198,13.353 h -1.7969 q -0.2343,0 -0.2343,-0.25 v -0.2343 q 0,-0.2188 0.2343,-0.2188 l 1.4844,-0.1094 q 0.9531,0 1.5781,-0.7109 0.625,-0.7109 0.9141,-1.7344 Q 2.349,9.0718 2.349,8.1499 2.349,6.853 1.7474,6.0249 1.1458,5.1968 -0.1042,5.1968 q -1.0312,0 -1.9609,0.3906 -0.9297,0.3906 -1.4922,1.1719 0.0625,-0.0156 0.1016,-0.0156 0.039,0 0.0859,0 0.6094,0 1.0156,0.4218 0.4063,0.4219 0.4063,1.0157 0,0.5781 -0.4063,1 -0.4062,0.4218 -1.0156,0.4218 -0.5937,0 -1.0156,-0.4218 -0.4219,-0.4219 -0.4219,-1 0,-1.1719 0.6953,-2.0235 0.6953,-0.8515 1.7969,-1.2969 1.1016,-0.4453 2.2109,-0.4453 0.8282,0 1.7344,0.2422 0.9063,0.2422 1.6406,0.7031 0.7344,0.461 1.2032,1.1719 0.4687,0.711 0.4687,1.6172 0,1.125 -0.5078,2.0938 -0.5078,0.9687 -1.3906,1.664 -0.8828,0.6953 -1.9297,1.0391 1.1719,0.2187 2.2265,0.8828 1.0547,0.6641 1.6954,1.6875 0.6406,1.0234 0.6406,2.2109 0,1.5 -0.8203,2.7032 -0.8203,1.2031 -2.1485,1.8828 -1.3281,0.6797 -2.8125,0.6797 -1.2656,0 -2.539,-0.4844 -1.2735,-0.4844 -2.0782,-1.4453 -0.8046,-0.961 -0.8046,-2.3047 0,-0.6719 0.4453,-1.1172 0.4453,-0.4453 1.1172,-0.4453 0.4375,0 0.7968,0.2031 0.3594,0.2031 0.5625,0.5703 0.2032,0.3672 0.2032,0.7891 0,0.6562 -0.461,1.1094 -0.4609,0.4531 -1.1015,0.4531 z"
         id="path91" />
    </g>
    <g
       transform="translate(494.5211,443)"
       style="font-size:26.6667px;font-family:mwa_cmr10;color-interpolation:linearRGB;fill:#262626;stroke:#262626;color-rendering:optimizeQuality;image-rendering:optimizeQuality;text-rendering:geometricPrecision"
       id="g97">
      <path
         style="stroke:none"
         d="M -5.9167,17.9468 V 16.9937 L 2.4271,4.5562 Q 2.5208,4.4155 2.7083,4.4155 H 3.099 q 0.3125,0 0.3125,0.3125 v 12.2657 h 2.6406 v 0.9531 H 3.4115 v 2.6406 q 0,0.5625 0.789,0.7109 0.7891,0.1485 1.836,0.1485 v 0.9531 H -1.401 v -0.9531 q 1.0312,0 1.8281,-0.1485 Q 1.224,21.1499 1.224,20.5874 V 17.9468 Z M -5.026,16.9937 H 1.3802 V 7.4312 Z"
         id="path95" />
    </g>
    <g
       transform="translate(592.4014,443)"
       style="font-size:26.6667px;font-family:mwa_cmr10;color-interpolation:linearRGB;fill:#262626;stroke:#262626;color-rendering:optimizeQuality;image-rendering:optimizeQuality;text-rendering:geometricPrecision"
       id="g101">
      <path
         style="stroke:none"
         d="m -4.3229,19.3218 q 0.2812,0.7969 0.8515,1.4453 0.5704,0.6484 1.3594,1.0078 0.7891,0.3594 1.6328,0.3594 1.9532,0 2.6875,-1.5156 0.7344,-1.5157 0.7344,-3.6719 0,-0.9375 -0.0312,-1.5781 Q 2.8802,14.728 2.7396,14.1343 2.4896,13.1812 1.8568,12.4702 1.224,11.7593 0.3177,11.7593 q -0.9062,0 -1.5625,0.2812 -0.6562,0.2813 -1.0625,0.6485 -0.4062,0.3672 -0.7187,0.7734 -0.3125,0.4063 -0.3907,0.4375 h -0.3125 q -0.0625,0 -0.164,-0.0859 -0.1016,-0.086 -0.1016,-0.1641 V 4.6343 q 0,-0.0781 0.0859,-0.1485 0.086,-0.0703 0.1797,-0.0703 h 0.0782 q 1.8281,0.875 3.8593,0.875 2.0157,0 3.875,-0.875 h 0.0782 q 0.0937,0 0.1718,0.0703 0.0782,0.0704 0.0782,0.1485 v 0.25 q 0,0.125 -0.0625,0.125 -0.9219,1.2344 -2.3125,1.914 -1.3907,0.6797 -2.875,0.6797 -1.0782,0 -2.2188,-0.2968 v 5.0937 q 0.9063,-0.7187 1.6094,-1.0312 0.7031,-0.3125 1.7969,-0.3125 1.4843,0 2.664,0.8593 1.1797,0.8594 1.8125,2.2344 0.6328,1.375 0.6328,2.8125 0,1.625 -0.7968,3.0078 -0.7969,1.3828 -2.1641,2.2031 -1.3672,0.8204 -2.9766,0.8204 -1.3281,0 -2.4453,-0.6875 -1.1172,-0.6875 -1.7578,-1.8438 -0.6406,-1.1562 -0.6406,-2.4687 0,-0.6094 0.3984,-0.9922 0.3985,-0.3828 0.9922,-0.3828 0.5938,0 0.9922,0.3906 0.3984,0.3906 0.3984,0.9844 0,0.5781 -0.3984,0.9843 -0.3984,0.4063 -0.9922,0.4063 -0.0937,0 -0.2109,-0.0235 -0.1172,-0.0234 -0.1797,-0.039 z"
         id="path99" />
    </g>
    <g
       transform="translate(690.2817,443)"
       style="font-size:26.6667px;font-family:mwa_cmr10;color-interpolation:linearRGB;fill:#262626;stroke:#262626;color-rendering:optimizeQuality;image-rendering:optimizeQuality;text-rendering:geometricPrecision"
       id="g105">
      <path
         style="stroke:none"
         d="m 0.0833,22.9937 q -1.6718,0 -2.7968,-0.8907 -1.125,-0.8906 -1.7344,-2.3047 -0.6094,-1.414 -0.8438,-2.9687 -0.2343,-1.5547 -0.2343,-3.1641 0,-2.125 0.8281,-4.2734 0.8281,-2.1484 2.4453,-3.5625 1.6172,-1.4141 3.8203,-1.4141 0.9219,0 1.7266,0.3516 0.8047,0.3516 1.2578,1.0312 0.4531,0.6797 0.4531,1.6329 0,0.5625 -0.375,0.9375 -0.375,0.375 -0.9375,0.375 -0.5312,0 -0.9062,-0.3829 -0.375,-0.3828 -0.375,-0.9296 0,-0.5157 0.375,-0.8985 0.375,-0.3828 0.9062,-0.3828 H 3.8333 Q 3.5052,5.6499 2.8724,5.4233 2.2396,5.1968 1.5677,5.1968 q -0.8125,0 -1.5078,0.3515 -0.6953,0.3516 -1.2422,0.961 -0.5469,0.6094 -0.9219,1.3437 -0.375,0.7344 -0.5781,1.6719 -0.2031,0.9375 -0.2578,1.75 -0.0547,0.8125 -0.0547,2.0469 0.4844,-1.0938 1.3516,-1.8047 0.8672,-0.7109 1.9609,-0.7109 1.2031,0 2.1953,0.4921 0.9922,0.4922 1.7031,1.3516 0.711,0.8594 1.086,1.9688 0.375,1.1093 0.375,2.25 0,1.5781 -0.711,3.0078 -0.7109,1.4297 -1.9843,2.2734 -1.2735,0.8438 -2.8985,0.8438 z m 0,-0.8594 q 1.0469,0 1.6797,-0.4766 0.6328,-0.4765 0.9297,-1.2578 0.2969,-0.7812 0.3672,-1.5781 0.0703,-0.7969 0.0703,-1.9531 0,-1.5313 -0.1484,-2.6172 -0.1485,-1.086 -0.7891,-1.9063 -0.6406,-0.8203 -1.9844,-0.8203 -1.0937,0 -1.7968,0.7344 -0.7032,0.7344 -1.0235,1.8672 -0.3203,1.1328 -0.3203,2.164 0,0.3594 0.0156,0.5469 0,0.0313 0,0.0625 0,0.0313 -0.0156,0.0625 0,1.1719 0.2344,2.3516 0.2344,1.1797 0.9062,2 0.6719,0.8203 1.875,0.8203 z"
         id="path103" />
    </g>
    <g
       transform="translate(410.5003,476.8)"
       style="font-size:29.3333px;font-family:mwa_cmr10;color-interpolation:linearRGB;fill:#262626;stroke:#262626;color-rendering:optimizeQuality;image-rendering:optimizeQuality;text-rendering:geometricPrecision"
       id="g143">
      <path
         style="stroke:none"
         d="m -150.1918,21.5461 q 1.0469,1.2657 2.5547,1.9922 1.5078,0.7266 3.1485,0.7266 1.6093,0 2.9296,-0.8281 1.3204,-0.8282 1.3204,-2.3438 v -2.4219 q 0,-0.9218 -3.625,-0.9218 V 16.718 h 8.3125 v 1.0313 q -0.9219,0 -1.461,0.1562 -0.539,0.1563 -0.539,0.7656 v 5.7188 q 0,0.0937 -0.0782,0.1719 -0.0781,0.0781 -0.1718,0.0781 -0.2657,0 -0.8985,-0.6406 -0.6328,-0.6407 -1.0078,-1.125 -0.7031,1.2187 -2.2187,1.8125 -1.5157,0.5937 -3.1719,0.5937 -2.8125,0 -5.1328,-1.4531 -2.3203,-1.4531 -3.6641,-3.8828 -1.3437,-2.4297 -1.3437,-5.211 0,-2.0625 0.7812,-4 0.7813,-1.9375 2.1719,-3.414 1.3906,-1.4766 3.25,-2.3047 1.8594,-0.8281 3.9375,-0.8281 1.5,0 2.8359,0.6484 1.336,0.6484 2.3985,1.8203 l 1.6718,-2.375 q 0.1719,-0.0937 0.2032,-0.0937 h 0.2187 q 0.0781,0 0.1484,0.0703 0.0704,0.0703 0.0704,0.1797 v 7.8281 q 0,0.25 -0.2188,0.25 h -0.5312 q -0.2657,0 -0.2657,-0.25 0,-0.8438 -0.3359,-1.875 -0.3359,-1.0313 -0.8516,-1.9609 -0.5156,-0.9297 -1.1875,-1.6329 -1.6406,-1.5781 -3.75,-1.5781 -1.6093,0 -3.0781,0.7188 -1.4687,0.7187 -2.4844,2 -1.0625,1.3593 -1.4687,3.0937 -0.4063,1.7344 -0.4063,3.7031 0,4.4375 1.9375,6.8125 z"
         id="path107" />
      <path
         style="stroke:none"
         d="m -132.9545,24.6399 v -1.0156 q 1,0 1.6328,-0.1563 0.6328,-0.1562 0.6328,-0.7656 V 7.4836 q 0,-0.7812 -0.2343,-1.1328 -0.2344,-0.3515 -0.6719,-0.4297 -0.4375,-0.0781 -1.3594,-0.0781 V 4.8274 l 4.3125,-0.3125 v 18.1875 q 0,0.6094 0.6328,0.7656 0.6328,0.1563 1.6172,0.1563 v 1.0156 z"
         id="path109" />
      <path
         style="stroke:none"
         d="m -118.4469,24.968 q -1.7344,0 -3.2266,-0.8828 -1.4922,-0.8828 -2.3516,-2.375 -0.8593,-1.4922 -0.8593,-3.2422 0,-1.3281 0.4687,-2.5625 0.4688,-1.2344 1.3594,-2.2031 0.8906,-0.9688 2.0625,-1.5156 1.1719,-0.5469 2.5469,-0.5469 1.7812,0 3.25,0.9453 1.4687,0.9453 2.3203,2.5234 0.8515,1.5782 0.8515,3.3594 0,1.7344 -0.8672,3.2344 -0.8671,1.5 -2.3437,2.3828 -1.4766,0.8828 -3.2109,0.8828 z m 0,-0.8594 q 2.3281,0 3.1015,-1.6796 0.7735,-1.6797 0.7735,-4.2891 0,-1.4531 -0.1563,-2.4141 -0.1562,-0.9609 -0.6719,-1.7422 -0.3281,-0.4687 -0.8281,-0.8359 -0.5,-0.3672 -1.0625,-0.5547 -0.5625,-0.1875 -1.1562,-0.1875 -0.9063,0 -1.7188,0.4141 -0.8125,0.414 -1.3594,1.164 -0.5312,0.8282 -0.6797,1.8125 -0.1484,0.9844 -0.1484,2.3438 0,1.625 0.2813,2.9219 0.2812,1.2968 1.1406,2.1718 0.8594,0.875 2.4844,0.875 z"
         id="path111" />
      <path
         style="stroke:none"
         d="M -108.0146,24.6399 V 7.4836 q 0,-0.7812 -0.2344,-1.1328 -0.2343,-0.3515 -0.6718,-0.4297 -0.4375,-0.0781 -1.3594,-0.0781 V 4.8274 l 4.2969,-0.3125 v 9.0781 q 0.4687,-0.5312 1.1171,-0.9375 0.6485,-0.4062 1.3829,-0.6172 0.7343,-0.2109 1.5,-0.2109 1.2968,0 2.414,0.5234 1.1172,0.5235 1.9375,1.4453 0.8203,0.9219 1.2813,2.1172 0.4609,1.1953 0.4609,2.461 0,1.7656 -0.8594,3.2812 -0.8593,1.5156 -2.3359,2.4141 -1.4766,0.8984 -3.2578,0.8984 -1.0938,0 -2.1328,-0.5703 -1.0391,-0.5703 -1.711,-1.4922 l -0.9843,1.7344 z m 2.1094,-2.8438 q 0.4844,1.0625 1.3906,1.7344 0.9063,0.6719 2.0156,0.6719 1.5,0 2.4219,-0.8672 0.9219,-0.8672 1.2891,-2.1797 0.3672,-1.3125 0.3672,-2.7812 0,-2.4375 -0.625,-3.7188 -0.2813,-0.5625 -0.7735,-1.0469 -0.4922,-0.4843 -1.0937,-0.7578 -0.6016,-0.2734 -1.2735,-0.2734 -1.1562,0 -2.1484,0.6172 -0.9922,0.6172 -1.5703,1.6484 z"
         id="path113" />
      <path
         style="stroke:none"
         d="m -93.5776,21.7961 q 0,-1.7343 1.3593,-2.8125 1.3594,-1.0781 3.2657,-1.5234 1.9062,-0.4453 3.625,-0.4453 v -1.2031 q 0,-0.8282 -0.3672,-1.6172 -0.3672,-0.7891 -1.0625,-1.2891 -0.6953,-0.5 -1.5391,-0.5 -1.9219,0 -2.9219,0.8594 0.5469,0 0.9063,0.4219 0.3594,0.4218 0.3594,0.9687 0,0.5781 -0.4063,0.9922 -0.4062,0.4141 -0.9687,0.4141 -0.5938,0 -1,-0.4141 -0.4063,-0.4141 -0.4063,-0.9922 0,-1.5312 1.3828,-2.2734 1.3828,-0.7422 3.0547,-0.7422 1.1875,0 2.375,0.5 1.1875,0.5 1.9453,1.4375 0.7578,0.9375 0.7578,2.1875 v 6.5312 q 0,0.5625 0.2422,1.0391 0.2422,0.4766 0.7422,0.4766 0.4844,0 0.7188,-0.4844 0.2343,-0.4844 0.2343,-1.0313 v -1.8593 h 0.8438 v 1.8593 q 0,0.6407 -0.3359,1.2266 -0.336,0.5859 -0.9141,0.9375 -0.5781,0.3516 -1.2344,0.3516 -0.8594,0 -1.4687,-0.6563 -0.6094,-0.6562 -0.6875,-1.5625 -0.5313,1.0781 -1.5782,1.7266 -1.0468,0.6484 -2.25,0.6484 -1.0937,0 -2.164,-0.3281 -1.0703,-0.3281 -1.7891,-1.0313 -0.7187,-0.7031 -0.7187,-1.8125 z m 2.3593,0 q 0,1.0157 0.75,1.711 0.75,0.6953 1.7657,0.6953 0.9375,0 1.7031,-0.4688 0.7656,-0.4687 1.2187,-1.2734 0.4532,-0.8047 0.4532,-1.6953 v -3.0156 q -1.3282,0 -2.7032,0.4297 -1.375,0.4296 -2.2812,1.3515 -0.9063,0.9219 -0.9063,2.2656 z"
         id="path115" />
      <path
         style="stroke:none"
         d="m -79.1765,24.6399 v -1.0156 q 1,0 1.6328,-0.1563 0.6328,-0.1562 0.6328,-0.7656 V 7.4836 q 0,-0.7812 -0.2344,-1.1328 Q -77.3797,5.9993 -77.8172,5.9211 -78.2547,5.843 -79.1765,5.843 V 4.8274 l 4.3125,-0.3125 v 18.1875 q 0,0.6094 0.6328,0.7656 0.6328,0.1563 1.6172,0.1563 v 1.0156 z"
         id="path117" />
      <path
         style="stroke:none"
         d="m -61.1725,24.6399 v -1.0156 q 2.9844,0 2.9844,-0.9219 V 6.7649 q 0,-0.9219 -2.9844,-0.9219 V 4.8274 H -50.86 q 1.5938,0 3.1797,0.6562 1.5859,0.6563 2.6094,1.8985 1.0234,1.2422 1.0234,2.8984 0,1.6094 -1.0312,2.8281 -1.0313,1.2188 -2.6016,1.8516 -1.5703,0.6328 -3.1797,0.6328 h -4.6406 v 7.1094 q 0,0.9219 2.9844,0.9219 v 1.0156 z m 5.5938,-9.9063 h 3.9375 q 1.5937,0 2.5859,-0.4609 0.9922,-0.4609 1.4531,-1.4297 0.461,-0.9687 0.461,-2.5625 0,-2.3594 -1.0391,-3.3984 Q -49.2194,5.843 -51.6412,5.843 H -54.11 q -0.5312,0 -0.8203,0.0469 -0.2891,0.0469 -0.4687,0.25 -0.1797,0.2031 -0.1797,0.625 z"
         id="path119" />
      <path
         style="stroke:none"
         d="m -41.3188,24.6399 v -1.0156 q 1,0 1.6328,-0.1563 0.6328,-0.1562 0.6328,-0.7656 V 7.4836 q 0,-0.7812 -0.2344,-1.1328 Q -39.522,5.9993 -39.9595,5.9211 -40.397,5.843 -41.3188,5.843 V 4.8274 l 4.3125,-0.3125 v 9.9687 q 0.6093,-1.2031 1.6953,-1.9296 1.0859,-0.7266 2.414,-0.7266 2,0 3.0157,0.9609 1.0156,0.961 1.0156,2.9453 v 6.9688 q 0,0.6094 0.6328,0.7656 0.6328,0.1563 1.6328,0.1563 v 1.0156 h -6.6406 v -1.0156 q 0.9844,0 1.625,-0.1563 0.6406,-0.1562 0.6406,-0.7656 v -6.8906 q 0,-1.4063 -0.4141,-2.3203 -0.414,-0.9141 -1.6796,-0.9141 -1.6875,0 -2.7735,1.3437 -1.0859,1.3438 -1.0859,3.0625 v 5.7188 q 0,0.6094 0.6406,0.7656 0.6406,0.1563 1.6094,0.1563 v 1.0156 z"
         id="path121" />
      <path
         style="stroke:none"
         d="m -24.7256,21.7961 q 0,-1.7343 1.3594,-2.8125 1.3593,-1.0781 3.2656,-1.5234 1.9062,-0.4453 3.625,-0.4453 v -1.2031 q 0,-0.8282 -0.3672,-1.6172 -0.3672,-0.7891 -1.0625,-1.2891 -0.6953,-0.5 -1.5391,-0.5 -1.9218,0 -2.9218,0.8594 0.5468,0 0.9062,0.4219 0.3594,0.4218 0.3594,0.9687 0,0.5781 -0.4063,0.9922 -0.4062,0.4141 -0.9687,0.4141 -0.5938,0 -1,-0.4141 -0.4063,-0.4141 -0.4063,-0.9922 0,-1.5312 1.3828,-2.2734 1.3829,-0.7422 3.0547,-0.7422 1.1875,0 2.375,0.5 1.1875,0.5 1.9453,1.4375 0.7579,0.9375 0.7579,2.1875 v 6.5312 q 0,0.5625 0.2421,1.0391 0.2422,0.4766 0.7422,0.4766 0.4844,0 0.7188,-0.4844 0.2344,-0.4844 0.2344,-1.0313 v -1.8593 h 0.8437 v 1.8593 q 0,0.6407 -0.3359,1.2266 -0.336,0.5859 -0.9141,0.9375 -0.5781,0.3516 -1.2344,0.3516 -0.8593,0 -1.4687,-0.6563 -0.6094,-0.6562 -0.6875,-1.5625 -0.5313,1.0781 -1.5781,1.7266 -1.0469,0.6484 -2.25,0.6484 -1.0938,0 -2.1641,-0.3281 -1.0703,-0.3281 -1.7891,-1.0313 -0.7187,-0.7031 -0.7187,-1.8125 z m 2.3594,0 q 0,1.0157 0.75,1.711 0.75,0.6953 1.7656,0.6953 0.9375,0 1.7031,-0.4688 0.7656,-0.4687 1.2188,-1.2734 0.4531,-0.8047 0.4531,-1.6953 v -3.0156 q -1.3281,0 -2.7031,0.4297 -1.375,0.4296 -2.2813,1.3515 -0.9062,0.9219 -0.9062,2.2656 z"
         id="path123" />
      <path
         style="stroke:none"
         d="m -10.2464,24.718 v -4.7187 q 0,-0.2344 0.25,-0.2344 h 0.3594 q 0.1562,0 0.2187,0.2344 0.8125,4.2031 3.9063,4.2031 1.375,0 2.3047,-0.625 0.9296,-0.625 0.9296,-1.9219 0,-0.9375 -0.7265,-1.5937 -0.7266,-0.6563 -1.711,-0.9063 l -1.9375,-0.375 q -0.9843,-0.2187 -1.7812,-0.6562 -0.7969,-0.4375 -1.3047,-1.1641 -0.5078,-0.7266 -0.5078,-1.6953 0,-1.2813 0.6719,-2.0938 0.6718,-0.8125 1.7422,-1.1718 1.0703,-0.3594 2.3203,-0.3594 1.4843,0 2.5937,0.7969 l 0.8438,-0.7188 q 0,-0.0781 0.1406,-0.0781 h 0.2031 q 0.0938,0 0.1641,0.0781 0.0703,0.0781 0.0703,0.1563 v 3.7968 q 0,0.2813 -0.2344,0.2813 h -0.3437 q -0.2657,0 -0.2657,-0.2813 0,-1.5156 -0.8437,-2.4296 -0.8438,-0.9141 -2.3594,-0.9141 -1.2969,0 -2.25,0.4766 -0.9531,0.4765 -0.9531,1.6484 0,0.8125 0.6875,1.3281 0.6875,0.5156 1.6094,0.75 l 1.9531,0.3594 q 1,0.2344 1.8594,0.7734 0.8593,0.5391 1.3593,1.3594 0.5,0.8203 0.5,1.8516 0,1.0468 -0.3593,1.8203 -0.3594,0.7734 -1.0078,1.2812 -0.6485,0.5078 -1.5235,0.75 -0.875,0.2422 -1.8437,0.2422 -1.8125,0 -3.0938,-1.2187 l -1.0625,1.1406 q 0,0.0781 -0.1562,0.0781 h -0.1719 q -0.25,0 -0.25,-0.25 z"
         id="path125" />
      <path
         style="stroke:none"
         d="m 7.574,24.968 q -1.7657,0 -3.2422,-0.9297 -1.4766,-0.9297 -2.3203,-2.4765 -0.8438,-1.5469 -0.8438,-3.2813 0,-1.7031 0.7656,-3.2265 0.7657,-1.5235 2.1485,-2.4688 1.3828,-0.9453 3.0859,-0.9453 1.3281,0 2.3125,0.4453 0.9844,0.4453 1.625,1.2422 0.6406,0.7969 0.9609,1.8672 0.3204,1.0703 0.3204,2.3672 0,0.375 -0.2969,0.375 H 3.699 v 0.3125 q 0,2.4062 0.9687,4.1328 0.9688,1.7265 3.1719,1.7265 0.8906,0 1.6484,-0.3906 0.7578,-0.3906 1.3125,-1.1015 0.5547,-0.711 0.7578,-1.5235 0.0313,-0.0937 0.1094,-0.1719 0.0781,-0.0781 0.1719,-0.0781 h 0.25 q 0.2969,0 0.2969,0.375 -0.4063,1.6406 -1.7657,2.6953 Q 9.2615,24.968 7.574,24.968 Z m -3.8438,-7.75 h 6.6094 q 0,-1.0937 -0.3047,-2.2109 -0.3047,-1.1172 -1.0156,-1.8594 -0.711,-0.7422 -1.8516,-0.7422 -1.6406,0 -2.5391,1.5391 -0.8984,1.539 -0.8984,3.2734 z"
         id="path127" />
      <path
         style="stroke:none"
         d="m 32.1544,31.8274 q -1.6094,-1.2656 -2.7735,-2.9141 -1.164,-1.6484 -1.914,-3.5234 -0.75,-1.875 -1.1172,-3.9141 -0.3672,-2.039 -0.3672,-4.0859 0,-2.0781 0.3672,-4.1172 0.3672,-2.0391 1.125,-3.9219 0.7578,-1.8828 1.9375,-3.5312 1.1797,-1.6485 2.7422,-2.8672 0,-0.0625 0.1562,-0.0625 h 0.2657 q 0.0781,0 0.1484,0.0781 0.0703,0.0781 0.0703,0.1719 0,0.125 -0.0469,0.1875 -1.4218,1.3906 -2.3672,2.9766 -0.9453,1.5859 -1.5156,3.375 -0.5703,1.789 -0.8281,3.7109 -0.2578,1.9219 -0.2578,4 0,9.2187 4.9375,14 0.0781,0.0937 0.0781,0.25 0,0.0625 -0.0781,0.1562 -0.0781,0.0938 -0.1406,0.0938 h -0.2657 q -0.1562,0 -0.1562,-0.0625 z"
         id="path129" />
      <path
         style="stroke:none"
         d="m 39.9681,24.6399 v -1.0156 q 3.7187,0 3.7187,-0.9219 v -2.0938 q -2.7969,-0.2812 -4.9062,-1.6718 -1.1094,-0.75 -1.8438,-1.8594 -0.7344,-1.1094 -0.7344,-2.3438 0,-1.2343 0.7344,-2.3515 0.7344,-1.1172 1.8438,-1.836 1.0937,-0.7343 2.3047,-1.1406 1.2109,-0.4062 2.6015,-0.5469 V 6.7649 q 0,-0.9219 -3.7187,-0.9219 V 4.8274 h 9.9375 V 5.843 q -3.7032,0 -3.7032,0.9219 v 2.0937 q 1.2032,0 2.5469,0.4532 1.3438,0.4531 2.4922,1.2109 1.1484,0.7578 1.8828,1.8594 0.7344,1.1015 0.7344,2.3515 0,1.2344 -0.7344,2.3282 -0.7344,1.0937 -1.914,1.8828 -1.1797,0.789 -2.5235,1.2265 -1.3437,0.4375 -2.4844,0.4375 v 2.0938 q 0,0.9219 3.7032,0.9219 v 1.0156 z m 6.2343,-4.7813 q 2.3438,-0.2968 3.4922,-1.5703 1.1485,-1.2734 1.1485,-3.5547 0,-2.3125 -1.1641,-3.5703 Q 48.5149,9.9055 46.2024,9.6086 Z M 43.6868,19.8274 V 9.6399 q -4.4687,0.625 -4.4687,5.0937 0,4.4688 4.4687,5.0938 z"
         id="path131" />
      <path
         style="stroke:none"
         d="m 56.747,29.0398 q -0.2031,0 -0.2031,-0.2812 0.0156,-0.0469 0.0391,-0.1719 0.0234,-0.125 0.0859,-0.2031 0.0625,-0.0781 0.1406,-0.0781 1.2813,0 1.7813,-0.1407 0.2812,-0.0937 0.4062,-0.5781 l 2.875,-11.5312 q 0.0469,-0.2032 0.0469,-0.2813 0,-0.2344 -0.2656,-0.2656 -0.3906,-0.0781 -1.5,-0.0781 -0.2031,0 -0.2031,-0.2813 0.0625,-0.2656 0.1093,-0.3594 0.0469,-0.0937 0.2344,-0.0937 h 6.2031 q 0.1875,0 0.1875,0.2812 -0.0312,0.2032 -0.0703,0.3282 -0.0391,0.125 -0.2109,0.125 -1.5469,0 -2.0625,0.1093 -0.5156,0.0938 -0.6406,0.6094 l -2.875,11.5313 q -0.0938,0.25 -0.0938,0.4531 0,0.1719 0.7188,0.1719 h 1.9531 q 1.6562,0 2.6797,-0.6563 1.0234,-0.6562 1.5156,-1.4844 0.4922,-0.8281 0.8203,-1.7109 0.3281,-0.8828 0.4844,-0.9141 h 0.1875 q 0.2187,0 0.2187,0.2657 l -1.875,5.0937 q -0.0156,0.1406 -0.1875,0.1406 z"
         id="path133" />
      <path
         style="stroke:none"
         d="m 79.9093,17.968 q -0.25,0 -0.4063,-0.1797 -0.1562,-0.1797 -0.1562,-0.3984 0,-0.2188 0.1562,-0.3984 0.1563,-0.1797 0.4063,-0.1797 h 8.5156 V 8.2493 q 0,-0.2188 0.1719,-0.3672 0.1719,-0.1485 0.4062,-0.1485 0.2188,0 0.3985,0.1485 0.1797,0.1484 0.1797,0.3672 v 8.5625 h 8.5312 q 0.2188,0 0.375,0.1797 0.1563,0.1796 0.1563,0.3984 0,0.2187 -0.1563,0.3984 -0.1562,0.1797 -0.375,0.1797 h -8.5312 v 8.5625 q 0,0.2188 -0.1797,0.3672 -0.1797,0.1484 -0.3985,0.1484 -0.2343,0 -0.4062,-0.1484 -0.1719,-0.1484 -0.1719,-0.3672 V 17.968 Z"
         id="path135" />
      <path
         style="stroke:none"
         d="m 112.4457,24.6399 v -1.0156 q 3.7187,0 3.7187,-0.9219 v -2.0938 q -2.7969,-0.2812 -4.9062,-1.6718 -1.1094,-0.75 -1.8438,-1.8594 -0.7344,-1.1094 -0.7344,-2.3438 0,-1.2343 0.7344,-2.3515 0.7344,-1.1172 1.8438,-1.836 1.0937,-0.7343 2.3046,-1.1406 1.211,-0.4062 2.6016,-0.5469 V 6.7649 q 0,-0.9219 -3.7187,-0.9219 V 4.8274 h 9.9375 V 5.843 q -3.7032,0 -3.7032,0.9219 v 2.0937 q 1.2032,0 2.5469,0.4532 1.3438,0.4531 2.4922,1.2109 1.1484,0.7578 1.8828,1.8594 0.7344,1.1015 0.7344,2.3515 0,1.2344 -0.7344,2.3282 -0.7344,1.0937 -1.9141,1.8828 -1.1796,0.789 -2.5234,1.2265 -1.3437,0.4375 -2.4844,0.4375 v 2.0938 q 0,0.9219 3.7032,0.9219 v 1.0156 z m 6.2343,-4.7813 q 2.3438,-0.2968 3.4922,-1.5703 1.1485,-1.2734 1.1485,-3.5547 0,-2.3125 -1.1641,-3.5703 -1.1641,-1.2578 -3.4766,-1.5547 z m -2.5156,-0.0312 V 9.6399 q -4.4687,0.625 -4.4687,5.0937 0,4.4688 4.4687,5.0938 z"
         id="path137" />
      <path
         style="stroke:none"
         d="m 129.2715,29.0398 q -0.2031,0 -0.2031,-0.2812 0,-0.0469 0.0312,-0.1719 0.0313,-0.125 0.0859,-0.2031 0.0547,-0.0781 0.1485,-0.0781 1.2812,0 1.7812,-0.1407 0.2657,-0.0937 0.3907,-0.5781 l 2.8906,-11.5312 q 0.0312,-0.2032 0.0312,-0.2813 0,-0.2344 -0.2343,-0.2656 -0.4063,-0.0781 -1.5157,-0.0781 -0.2187,0 -0.2187,-0.2813 0.0156,-0.0469 0.0469,-0.1719 0.0312,-0.125 0.0859,-0.2031 0.0547,-0.0781 0.1328,-0.0781 h 6.375 q 0.7656,0 1.5859,0.1719 0.8204,0.1718 1.5,0.5468 0.6797,0.375 1.125,1 0.4454,0.625 0.4454,1.4532 0,1.0468 -0.6954,1.8828 -0.6953,0.8359 -1.7656,1.3906 -1.0703,0.5547 -2.0703,0.7891 0.8125,0.2968 1.3359,0.9453 0.5235,0.6484 0.5235,1.4922 0,0.125 0,0.1797 0,0.0546 -0.0156,0.1171 l -0.1719,1.875 q -0.0156,0.4063 -0.0313,0.6954 -0.0156,0.289 -0.0156,0.4609 0,0.5781 0.1641,0.9219 0.164,0.3437 0.664,0.3437 0.6563,0 1.1563,-0.6094 0.5,-0.6093 0.6562,-1.3281 0.0938,-0.1875 0.2032,-0.1875 h 0.1875 q 0.2187,0 0.2187,0.2813 -0.1562,0.5937 -0.4922,1.1406 -0.3359,0.5469 -0.8437,0.8984 -0.5078,0.3516 -1.1016,0.3516 -1.2344,0 -2.1016,-0.5547 -0.8671,-0.5547 -0.8671,-1.7266 0,-0.4375 0.0937,-0.7656 l 0.4531,-1.875 q 0.0782,-0.25 0.0782,-0.5937 0,-0.875 -0.586,-1.3672 -0.5859,-0.4922 -1.4765,-0.4922 h -2.5938 l -1.375,5.5469 q -0.0469,0.1718 -0.0469,0.2968 0,0.2188 0.25,0.2344 0.4063,0.0938 1.5,0.0938 0.2188,0 0.2188,0.2656 -0.0625,0.2969 -0.1094,0.3828 -0.0469,0.0859 -0.25,0.0859 z m 5.5156,-7.4531 h 2.3281 q 2.2969,0 3.4532,-1.1562 0.5312,-0.5313 0.8437,-1.3594 0.3125,-0.8281 0.3125,-1.6563 0,-0.7656 -0.4531,-1.2109 -0.4531,-0.4453 -1.125,-0.6094 -0.6719,-0.164 -1.4844,-0.164 h -1.4062 q -0.5782,0 -0.7657,0.1015 -0.1875,0.1016 -0.3281,0.6172 z"
         id="path139" />
      <path
         style="stroke:none"
         d="m 147.3469,31.8899 q -0.2656,0 -0.2656,-0.25 0,-0.125 0.0625,-0.1875 4.9531,-4.8438 4.9531,-14.0625 0,-9.2188 -4.9063,-14 -0.1093,-0.0781 -0.1093,-0.25 0,-0.0938 0.0781,-0.1719 0.0781,-0.0781 0.1875,-0.0781 h 0.2656 q 0.0781,0 0.1406,0.0625 2.0782,1.6406 3.4688,3.9922 1.3906,2.3515 2.0312,5.0078 0.6407,2.6562 0.6407,5.4375 0,2.0469 -0.3438,4.0391 -0.3437,1.9921 -1.1016,3.9218 -0.7578,1.9297 -1.9218,3.5703 -1.1641,1.6407 -2.7735,2.9063 -0.0625,0.0625 -0.1406,0.0625 z"
         id="path141" />
    </g>
    <g
       style="color-interpolation:linearRGB;fill:#262626;stroke:#262626;stroke-width:0.6667;stroke-linejoin:round;color-rendering:optimizeQuality;image-rendering:optimizeQuality;text-rendering:geometricPrecision"
       id="g177">
      <line
         y2="38"
         style="fill:none"
         x1="103"
         x2="103"
         y1="435"
         id="line145" />
      <line
         y2="38"
         style="fill:none"
         x1="718"
         x2="718"
         y1="435"
         id="line147" />
      <line
         y2="435"
         style="fill:none"
         x1="103"
         x2="109.15"
         y1="435"
         id="line149" />
      <line
         y2="373.9231"
         style="fill:none"
         x1="103"
         x2="109.15"
         y1="373.9231"
         id="line151" />
      <line
         y2="312.84619"
         style="fill:none"
         x1="103"
         x2="109.15"
         y1="312.84619"
         id="line153" />
      <line
         y2="251.7692"
         style="fill:none"
         x1="103"
         x2="109.15"
         y1="251.7692"
         id="line155" />
      <line
         y2="190.69231"
         style="fill:none"
         x1="103"
         x2="109.15"
         y1="190.69231"
         id="line157" />
      <line
         y2="129.6154"
         style="fill:none"
         x1="103"
         x2="109.15"
         y1="129.6154"
         id="line159" />
      <line
         y2="68.538498"
         style="fill:none"
         x1="103"
         x2="109.15"
         y1="68.538498"
         id="line161" />
      <line
         y2="435"
         style="fill:none"
         x1="718"
         x2="711.84998"
         y1="435"
         id="line163" />
      <line
         y2="373.9231"
         style="fill:none"
         x1="718"
         x2="711.84998"
         y1="373.9231"
         id="line165" />
      <line
         y2="312.84619"
         style="fill:none"
         x1="718"
         x2="711.84998"
         y1="312.84619"
         id="line167" />
      <line
         y2="251.7692"
         style="fill:none"
         x1="718"
         x2="711.84998"
         y1="251.7692"
         id="line169" />
      <line
         y2="190.69231"
         style="fill:none"
         x1="718"
         x2="711.84998"
         y1="190.69231"
         id="line171" />
      <line
         y2="129.6154"
         style="fill:none"
         x1="718"
         x2="711.84998"
         y1="129.6154"
         id="line173" />
      <line
         y2="68.538498"
         style="fill:none"
         x1="718"
         x2="711.84998"
         y1="68.538498"
         id="line175" />
    </g>
    <g
       transform="translate(95,435)"
       style="font-size:26.6667px;font-family:mwa_cmr10;color-interpolation:linearRGB;fill:#262626;stroke:#262626;color-rendering:optimizeQuality;image-rendering:optimizeQuality;text-rendering:geometricPrecision"
       id="g181">
      <path
         style="stroke:none"
         d="m -6.5834,6.9937 q -3.3125,0 -4.5,-2.7266 -1.1875,-2.7266 -1.1875,-6.4766 0,-2.3437 0.4219,-4.414 0.4219,-2.0703 1.6953,-3.5157 1.2735,-1.4453 3.5703,-1.4453 1.7813,0 2.9141,0.8672 1.1328,0.8672 1.7266,2.25 0.5937,1.3828 0.8125,2.9531 0.2187,1.5704 0.2187,3.3047 0,2.3282 -0.4297,4.3516 -0.4297,2.0234 -1.6797,3.4375 -1.25,1.4141 -3.5625,1.4141 z m 0,-0.7032 q 1.5,0 2.2422,-1.539 0.7422,-1.5391 0.9141,-3.4141 0.1719,-1.875 0.1719,-3.9844 0,-2.0312 -0.1719,-3.7422 -0.1719,-1.7109 -0.9063,-3.1015 -0.7343,-1.3906 -2.25,-1.3906 -1.5312,0 -2.2656,1.3984 -0.7344,1.3984 -0.9062,3.1016 -0.1719,1.7031 -0.1719,3.7343 0,1.5 0.0703,2.836 0.0703,1.3359 0.3828,2.75 0.3125,1.414 1.0234,2.3828 0.711,0.9687 1.8672,0.9687 z"
         id="path179" />
    </g>
    <g
       transform="translate(95,373.9231)"
       style="font-size:26.6667px;font-family:mwa_cmr10;color-interpolation:linearRGB;fill:#262626;stroke:#262626;color-rendering:optimizeQuality;image-rendering:optimizeQuality;text-rendering:geometricPrecision"
       id="g185">
      <path
         style="stroke:none"
         d="M -11.9896,6.3999 V 5.6812 q 0,-0.0782 0.0469,-0.1563 l 4.2031,-4.6406 q 0.9531,-1.0313 1.539,-1.7266 0.586,-0.6953 1.1719,-1.6015 0.586,-0.9063 0.9219,-1.8516 0.3359,-0.9453 0.3359,-2.0078 0,-1.0938 -0.414,-2.1094 -0.4141,-1.0156 -1.2188,-1.6172 -0.8047,-0.6015 -1.9609,-0.6015 -1.1719,0 -2.1094,0.7031 -0.9375,0.7031 -1.3125,1.8281 0.1094,-0.0312 0.2813,-0.0312 0.6093,0 1.039,0.4062 0.4297,0.4063 0.4297,1.0625 0,0.6094 -0.4297,1.0391 -0.4297,0.4297 -1.039,0.4297 -0.625,0 -1.0547,-0.4375 -0.4297,-0.4375 -0.4297,-1.0313 0,-1.0156 0.3828,-1.9062 0.3828,-0.8907 1.1016,-1.586 0.7187,-0.6953 1.625,-1.0625 0.9062,-0.3672 1.9218,-0.3672 1.5313,0 2.8672,0.6563 1.336,0.6562 2.1094,1.8437 0.7734,1.1875 0.7734,2.7813 0,1.1875 -0.5156,2.2422 -0.5156,1.0547 -1.3125,1.914 -0.7969,0.8594 -2.0547,1.9532 -1.2578,1.0937 -1.6484,1.4687 l -3.0625,2.9375 h 2.5937 q 1.9219,0 3.2032,-0.0312 1.2812,-0.0313 1.3593,-0.1094 0.3282,-0.3281 0.6563,-2.4844 h 0.7812 L -1.974,6.3999 Z"
         id="path183" />
    </g>
    <g
       transform="translate(95,312.8462)"
       style="font-size:26.6667px;font-family:mwa_cmr10;color-interpolation:linearRGB;fill:#262626;stroke:#262626;color-rendering:optimizeQuality;image-rendering:optimizeQuality;text-rendering:geometricPrecision"
       id="g189">
      <path
         style="stroke:none"
         d="M -12.5834,1.9468 V 0.9937 l 8.3438,-12.4375 q 0.0937,-0.1407 0.2812,-0.1407 h 0.3907 q 0.3125,0 0.3125,0.3125 V 0.9937 h 2.6406 v 0.9531 h -2.6406 v 2.6406 q 0,0.5625 0.789,0.7109 0.7891,0.1485 1.836,0.1485 V 6.3999 H -8.0677 V 5.4468 q 1.0312,0 1.8281,-0.1485 0.7969,-0.1484 0.7969,-0.7109 V 1.9468 Z m 0.8907,-0.9531 h 6.4062 v -9.5625 z"
         id="path187" />
    </g>
    <g
       transform="translate(95,251.7692)"
       style="font-size:26.6667px;font-family:mwa_cmr10;color-interpolation:linearRGB;fill:#262626;stroke:#262626;color-rendering:optimizeQuality;image-rendering:optimizeQuality;text-rendering:geometricPrecision"
       id="g193">
      <path
         style="stroke:none"
         d="m -6.5834,6.9937 q -1.6718,0 -2.7968,-0.8907 -1.125,-0.8906 -1.7344,-2.3047 -0.6094,-1.414 -0.8438,-2.9687 -0.2343,-1.5547 -0.2343,-3.1641 0,-2.125 0.8281,-4.2734 0.8281,-2.1484 2.4453,-3.5625 1.6172,-1.4141 3.8203,-1.4141 0.9219,0 1.7266,0.3516 0.8047,0.3516 1.2578,1.0312 0.4531,0.6797 0.4531,1.6329 0,0.5625 -0.375,0.9375 -0.375,0.375 -0.9375,0.375 -0.5312,0 -0.9062,-0.3829 -0.375,-0.3828 -0.375,-0.9296 0,-0.5157 0.375,-0.8985 0.375,-0.3828 0.9062,-0.3828 h 0.1406 q -0.3281,-0.5 -0.9609,-0.7266 -0.6328,-0.2265 -1.3047,-0.2265 -0.8125,0 -1.5078,0.3515 -0.6953,0.3516 -1.2422,0.961 -0.5469,0.6094 -0.9219,1.3437 -0.375,0.7344 -0.5781,1.6719 -0.2031,0.9375 -0.2578,1.75 -0.0547,0.8125 -0.0547,2.0469 0.4844,-1.0938 1.3516,-1.8047 0.8672,-0.7109 1.9609,-0.7109 1.2031,0 2.1953,0.4921 0.9922,0.4922 1.7031,1.3516 0.711,0.8594 1.086,1.9688 0.375,1.1093 0.375,2.25 0,1.5781 -0.711,3.0078 -0.7109,1.4297 -1.9843,2.2734 -1.2735,0.8438 -2.8985,0.8438 z m 0,-0.8594 q 1.0469,0 1.6797,-0.4766 0.6328,-0.4765 0.9297,-1.2578 0.2969,-0.7812 0.3672,-1.5781 0.0703,-0.7969 0.0703,-1.9531 0,-1.5313 -0.1484,-2.6172 -0.1485,-1.086 -0.7891,-1.9063 -0.6406,-0.8203 -1.9844,-0.8203 -1.0937,0 -1.7968,0.7344 -0.7032,0.7344 -1.0235,1.8672 -0.3203,1.1328 -0.3203,2.164 0,0.3594 0.0156,0.5469 0,0.0313 0,0.0625 0,0.0313 -0.0156,0.0625 0,1.1719 0.2344,2.3516 0.2344,1.1797 0.9062,2 0.6719,0.8203 1.875,0.8203 z"
         id="path191" />
    </g>
    <g
       transform="translate(95,190.6923)"
       style="font-size:26.6667px;font-family:mwa_cmr10;color-interpolation:linearRGB;fill:#262626;stroke:#262626;color-rendering:optimizeQuality;image-rendering:optimizeQuality;text-rendering:geometricPrecision"
       id="g197">
      <path
         style="stroke:none"
         d="m -12.1927,2.3062 q 0,-1.625 1.0625,-2.875 1.0625,-1.25 2.7343,-2.0782 l -1,-0.6406 q -0.9218,-0.6094 -1.5,-1.6172 -0.5781,-1.0078 -0.5781,-2.1172 0,-1.2968 0.6797,-2.3359 0.6797,-1.0391 1.8047,-1.6328 1.125,-0.5938 2.4062,-0.5938 1.2032,0 2.3125,0.4922 1.1094,0.4922 1.8282,1.3985 0.7187,0.9062 0.7187,2.1562 0,0.9063 -0.4219,1.6875 -0.4218,0.7813 -1.1718,1.3984 -0.75,0.6172 -1.5938,1.0547 l 1.5469,0.9844 q 1.0625,0.7031 1.7187,1.8359 0.6563,1.1329 0.6563,2.3829 0,1.4687 -0.7891,2.6718 -0.789,1.2032 -2.0781,1.8594 -1.2891,0.6563 -2.7266,0.6563 -1.3906,0 -2.6953,-0.5704 -1.3047,-0.5703 -2.1094,-1.6406 -0.8046,-1.0703 -0.8046,-2.4765 z m 1.4531,0 q 0,1.0625 0.5859,1.9453 0.586,0.8828 1.5547,1.3828 0.9688,0.5 2.0156,0.5 1.5625,0 2.8438,-0.9141 1.2812,-0.914 1.2812,-2.4297 0,-0.5156 -0.2031,-1.0234 Q -2.8646,1.2593 -3.224,0.8452 -3.5834,0.4312 -4.0365,0.1655 l -3.625,-2.3437 q -0.8437,0.4375 -1.5469,1.125 -0.7031,0.6875 -1.1172,1.5469 -0.414,0.8593 -0.414,1.8125 z m 1.8594,-8.25 3.2656,2.1093 q 1.1406,-0.6562 1.8672,-1.5937 0.7265,-0.9375 0.7265,-2.1094 0,-0.9062 -0.5078,-1.6641 -0.5078,-0.7578 -1.3281,-1.1796 -0.8203,-0.4219 -1.7578,-0.4219 -0.8125,0 -1.6406,0.3125 -0.8282,0.3125 -1.3672,0.9453 -0.5391,0.6328 -0.5391,1.4766 0,1.2656 1.2813,2.125 z"
         id="path195" />
    </g>
    <g
       transform="translate(95,129.6154)"
       style="font-size:26.6667px;font-family:mwa_cmr10;color-interpolation:linearRGB;fill:#262626;stroke:#262626;color-rendering:optimizeQuality;image-rendering:optimizeQuality;text-rendering:geometricPrecision"
       id="g203">
      <path
         style="stroke:none"
         d="M -24.1667,6.3999 V 5.4468 q 3.375,0 3.375,-0.8594 V -9.5845 q -1.3907,0.6719 -3.5313,0.6719 v -0.9375 q 3.3125,0 5,-1.7344 h 0.375 q 0.0938,0 0.1797,0.0703 0.0859,0.0704 0.0859,0.1641 V 4.5874 q 0,0.8594 3.375,0.8594 v 0.9531 z"
         id="path199" />
      <path
         style="stroke:none"
         d="m -6.5834,6.9937 q -3.3125,0 -4.5,-2.7266 -1.1875,-2.7266 -1.1875,-6.4766 0,-2.3437 0.4219,-4.414 0.4219,-2.0703 1.6953,-3.5157 1.2735,-1.4453 3.5703,-1.4453 1.7813,0 2.9141,0.8672 1.1328,0.8672 1.7266,2.25 0.5937,1.3828 0.8125,2.9531 0.2187,1.5704 0.2187,3.3047 0,2.3282 -0.4297,4.3516 -0.4297,2.0234 -1.6797,3.4375 -1.25,1.4141 -3.5625,1.4141 z m 0,-0.7032 q 1.5,0 2.2422,-1.539 0.7422,-1.5391 0.9141,-3.4141 0.1719,-1.875 0.1719,-3.9844 0,-2.0312 -0.1719,-3.7422 -0.1719,-1.7109 -0.9063,-3.1015 -0.7343,-1.3906 -2.25,-1.3906 -1.5312,0 -2.2656,1.3984 -0.7344,1.3984 -0.9062,3.1016 -0.1719,1.7031 -0.1719,3.7343 0,1.5 0.0703,2.836 0.0703,1.3359 0.3828,2.75 0.3125,1.414 1.0234,2.3828 0.711,0.9687 1.8672,0.9687 z"
         id="path201" />
    </g>
    <g
       transform="translate(95,68.5385)"
       style="font-size:26.6667px;font-family:mwa_cmr10;color-interpolation:linearRGB;fill:#262626;stroke:#262626;color-rendering:optimizeQuality;image-rendering:optimizeQuality;text-rendering:geometricPrecision"
       id="g209">
      <path
         style="stroke:none"
         d="M -24.1667,6.3999 V 5.4468 q 3.375,0 3.375,-0.8594 V -9.5845 q -1.3907,0.6719 -3.5313,0.6719 v -0.9375 q 3.3125,0 5,-1.7344 h 0.375 q 0.0938,0 0.1797,0.0703 0.0859,0.0704 0.0859,0.1641 V 4.5874 q 0,0.8594 3.375,0.8594 v 0.9531 z"
         id="path205" />
      <path
         style="stroke:none"
         d="M -11.9896,6.3999 V 5.6812 q 0,-0.0782 0.0469,-0.1563 l 4.2031,-4.6406 q 0.9531,-1.0313 1.539,-1.7266 0.586,-0.6953 1.1719,-1.6015 0.586,-0.9063 0.9219,-1.8516 0.3359,-0.9453 0.3359,-2.0078 0,-1.0938 -0.414,-2.1094 -0.4141,-1.0156 -1.2188,-1.6172 -0.8047,-0.6015 -1.9609,-0.6015 -1.1719,0 -2.1094,0.7031 -0.9375,0.7031 -1.3125,1.8281 0.1094,-0.0312 0.2813,-0.0312 0.6093,0 1.039,0.4062 0.4297,0.4063 0.4297,1.0625 0,0.6094 -0.4297,1.0391 -0.4297,0.4297 -1.039,0.4297 -0.625,0 -1.0547,-0.4375 -0.4297,-0.4375 -0.4297,-1.0313 0,-1.0156 0.3828,-1.9062 0.3828,-0.8907 1.1016,-1.586 0.7187,-0.6953 1.625,-1.0625 0.9062,-0.3672 1.9218,-0.3672 1.5313,0 2.8672,0.6563 1.336,0.6562 2.1094,1.8437 0.7734,1.1875 0.7734,2.7813 0,1.1875 -0.5156,2.2422 -0.5156,1.0547 -1.3125,1.914 -0.7969,0.8594 -2.0547,1.9532 -1.2578,1.0937 -1.6484,1.4687 l -3.0625,2.9375 h 2.5937 q 1.9219,0 3.2032,-0.0312 1.2812,-0.0313 1.3593,-0.1094 0.3282,-0.3281 0.6563,-2.4844 h 0.7812 L -1.974,6.3999 Z"
         id="path207" />
    </g>
    <g
       transform="rotate(-90,150.41655,86.08325)"
       style="font-size:29.3333px;font-family:mwa_cmmi10;color-interpolation:linearRGB;fill:#262626;stroke:#262626;color-rendering:optimizeQuality;image-rendering:optimizeQuality;text-rendering:geometricPrecision"
       id="g223">
      <path
         style="stroke:none"
         d="m -41.1026,-16.8257 q 0,1.75 0.6719,3.0703 0.6719,1.3203 1.9531,2.0703 1.2813,0.75 3.0313,0.75 1.8125,0 3.5078,-0.9375 1.6953,-0.9375 2.8906,-2.5 1.1953,-1.5625 1.6328,-3.3281 0.0625,-0.1719 0.2344,-0.1719 h 0.3437 q 0.125,0 0.1954,0.0781 0.0703,0.0781 0.0703,0.1875 0,0.0156 -0.0313,0.0781 -0.5,2.0157 -1.9219,3.7735 -1.4218,1.7578 -3.4062,2.7969 -1.9844,1.039 -4.0781,1.039 -2.2657,0 -4.0625,-1.0234 -1.7969,-1.0235 -2.7969,-2.836 -1,-1.8125 -1,-4.0937 0,-2.4375 1.0937,-4.8203 1.0938,-2.3828 2.9297,-4.2422 1.836,-1.8594 4.1953,-2.9688 2.3594,-1.1093 4.7813,-1.1093 0.9687,0 1.8437,0.2968 0.875,0.2969 1.625,0.8907 0.75,0.5937 1.2344,1.3593 l 2.2969,-2.4843 q 0,-0.0625 0.1406,-0.0625 h 0.1719 q 0.1094,0 0.1797,0.1015 0.0703,0.1016 0.0703,0.1953 l -1.9688,7.8438 q 0,0.1875 -0.2187,0.1875 h -0.5313 q -0.2187,0 -0.2187,-0.3281 0.1094,-0.625 0.1094,-1.5157 0,-1.4218 -0.4844,-2.6796 -0.4844,-1.2579 -1.4922,-2.0157 -1.0078,-0.7578 -2.4766,-0.7578 -2.3593,0 -4.3281,1.1875 -1.9687,1.1875 -3.3359,3.1172 -1.3672,1.9297 -2.1094,4.2891 -0.7422,2.3593 -0.7422,4.5625 z"
         id="path211" />
      <path
         style="stroke:none"
         d="m -22.7312,-7.6602 q 0,-0.3906 0.1719,-0.8281 l 1.6875,-4.5156 q 0.2813,-0.7813 0.2813,-1.2656 0,-0.625 -0.4532,-0.625 -0.8437,0 -1.375,0.8515 -0.5312,0.8516 -0.7968,1.9141 -0.0313,0.1406 -0.1719,0.1406 h -0.25 q -0.1719,0 -0.1719,-0.2031 v -0.0625 q 0.3438,-1.25 1.0391,-2.2188 0.6953,-0.9687 1.7578,-0.9687 0.75,0 1.2656,0.4922 0.5156,0.4922 0.5156,1.2578 0,0.3906 -0.1718,0.8125 l -1.7032,4.5156 q -0.2812,0.7031 -0.2812,1.2656 0,0.625 0.4844,0.625 0.8125,0 1.3672,-0.8828 0.5546,-0.8828 0.7734,-1.8984 0.0469,-0.1094 0.1562,-0.1094 h 0.2657 q 0.0781,0 0.1328,0.0547 0.0547,0.0547 0.0547,0.1172 0,0.0312 -0.0313,0.0625 -0.2812,1.1875 -0.9922,2.1953 -0.7109,1.0078 -1.7734,1.0078 -0.7344,0 -1.2578,-0.5078 -0.5235,-0.5078 -0.5235,-1.2266 z m 2.375,-11.2187 q 0,-0.4531 0.3672,-0.8125 0.3672,-0.3594 0.8047,-0.3594 0.3594,0 0.5938,0.2266 0.2343,0.2265 0.2343,0.5547 0,0.4687 -0.375,0.8281 -0.375,0.3594 -0.8281,0.3594 -0.3437,0 -0.5703,-0.2344 -0.2266,-0.2344 -0.2266,-0.5625 z"
         id="path213" />
      <path
         style="stroke:none"
         d="m -17.579,-3.1758 q 0,-0.5156 0.3593,-0.8906 0.3594,-0.375 0.8594,-0.375 0.3438,0 0.5781,0.2109 0.2344,0.211 0.2344,0.5547 0,0.3906 -0.2578,0.7188 -0.2578,0.3281 -0.6328,0.4218 0.375,0.1407 0.7344,0.1407 0.8906,0 1.5468,-0.8282 0.6563,-0.8281 0.9375,-1.8437 l 1.9688,-7.9063 q 0.1406,-0.5937 0.1406,-1.0156 0,-0.9062 -0.625,-0.9062 -0.9219,0 -1.6094,0.8359 -0.6875,0.8359 -1.125,1.9297 -0.0312,0.1406 -0.1562,0.1406 h -0.25 q -0.1719,0 -0.1719,-0.2031 v -0.0625 q 0.4688,-1.2656 1.336,-2.2266 0.8671,-0.9609 2.0234,-0.9609 0.875,0 1.4297,0.5469 0.5547,0.5468 0.5547,1.375 0,0.2968 -0.0625,0.6093 l -1.9844,7.9688 q -0.2188,0.8594 -0.8203,1.5625 -0.6016,0.7031 -1.4453,1.1172 -0.8438,0.414 -1.7188,0.414 -0.7187,0 -1.2812,-0.3437 -0.5625,-0.3438 -0.5625,-0.9844 z m 6.6562,-15.7031 q 0,-0.4688 0.3516,-0.8203 0.3515,-0.3516 0.8047,-0.3516 0.3593,0 0.5937,0.2266 0.2344,0.2265 0.2344,0.5547 0,0.4687 -0.375,0.8281 -0.375,0.3594 -0.8281,0.3594 -0.3438,0 -0.5625,-0.2344 -0.2188,-0.2344 -0.2188,-0.5625 z"
         id="path215" />
      <path
         style="stroke:none"
         d="m -4.575,-3.8882 q 0,-0.0938 0.0313,-0.1094 L 5.5344,-31.9507 q 0.0625,-0.1719 0.2031,-0.2657 0.1406,-0.0937 0.3281,-0.0937 0.25,0 0.4141,0.1562 0.1641,0.1563 0.1641,0.4219 v 0.1094 L -3.4344,-3.6695 q -0.1718,0.3594 -0.5625,0.3594 -0.2343,0 -0.4062,-0.1719 -0.1719,-0.1719 -0.1719,-0.4062 z"
         id="path217" />
      <path
         style="stroke:none"
         d="m 8.1965,-10.5601 q -0.2813,0 -0.2813,-0.375 0.0156,-0.0781 0.0547,-0.2578 0.0391,-0.1797 0.1172,-0.2813 0.0781,-0.1015 0.1875,-0.1015 2.7812,0 3.2344,-1.7813 l 3.9375,-15.8594 q -0.8125,-0.1406 -2.5469,-0.1406 -0.2813,0 -0.2813,-0.375 0.0157,-0.0781 0.0547,-0.25 0.0391,-0.1719 0.1172,-0.2812 0.0781,-0.1094 0.1875,-0.1094 h 5.0156 q 0.2188,0 0.2657,0.1875 l 6.4531,15.3281 3.2031,-12.8437 q 0.0625,-0.3125 0.0625,-0.4375 0,-1.2188 -2.2344,-1.2188 -0.2812,0 -0.2812,-0.375 0.0937,-0.375 0.1484,-0.5078 0.0547,-0.1328 0.336,-0.1328 h 6.2031 q 0.2969,0 0.2969,0.3906 -0.0157,0.0625 -0.0625,0.2422 -0.0469,0.1797 -0.125,0.2813 -0.0782,0.1015 -0.1875,0.1015 -2.7813,0 -3.2344,1.7813 l -4.1563,16.7656 q -0.0937,0.25 -0.2968,0.25 h -0.3594 q -0.1875,0 -0.25,-0.2031 L 16.384,-28.3101 16.3215,-28.482 q -0.0469,-0.0625 -0.0469,-0.0937 l -3.8438,15.3593 q -0.0312,0.0625 -0.0468,0.1719 -0.0157,0.1094 -0.0313,0.25 0,0.75 0.6485,0.9844 0.6484,0.2344 1.6171,0.2344 0.2813,0 0.2813,0.375 -0.1094,0.4062 -0.1797,0.5234 -0.0703,0.1172 -0.3047,0.1172 z"
         id="path219" />
      <path
         style="stroke:none"
         d="m 34.6505,-21.2049 v -0.5625 q 0,-0.0469 0.0469,-0.1094 l 3.25,-3.6094 q 0.75,-0.8125 1.211,-1.3516 0.4609,-0.539 0.9062,-1.25 0.4453,-0.7109 0.7109,-1.4375 0.2657,-0.7265 0.2657,-1.5546 0,-0.8594 -0.3203,-1.6485 -0.3204,-0.789 -0.9532,-1.2578 -0.6328,-0.4687 -1.5234,-0.4687 -0.9063,0 -1.6328,0.5468 -0.7266,0.5469 -1.0235,1.4219 0.0782,-0.0156 0.2188,-0.0156 0.4687,0 0.8047,0.3125 0.3359,0.3125 0.3359,0.8281 0,0.4688 -0.3359,0.8047 -0.336,0.3359 -0.8047,0.3359 -0.4844,0 -0.8203,-0.3437 -0.336,-0.3438 -0.336,-0.7969 0,-0.7969 0.2969,-1.4844 0.2969,-0.6875 0.8594,-1.2265 0.5625,-0.5391 1.2578,-0.8282 0.6953,-0.289 1.4922,-0.289 1.2031,0 2.2344,0.5078 1.0312,0.5078 1.6406,1.4375 0.6094,0.9297 0.6094,2.1641 0,0.9062 -0.3985,1.7265 -0.3984,0.8203 -1.0234,1.4922 -0.625,0.6719 -1.6016,1.5234 -0.9765,0.8516 -1.289,1.1485 l -2.375,2.2812 h 2.0156 q 1.4844,0 2.4844,-0.0234 1,-0.0234 1.0625,-0.0859 0.25,-0.2657 0.5,-1.9375 h 0.625 l -0.5938,3.75 z"
         id="path221" />
    </g>
    <g
       style="color-interpolation:linearRGB;fill:#ff0000;stroke:#ff0000;stroke-width:2.6667;stroke-linecap:butt;stroke-linejoin:round;color-rendering:optimizeQuality;image-rendering:optimizeQuality;text-rendering:geometricPrecision"
       id="g227">
      <path
         d="m 103,68.5385 6.2121,0.3381 6.2121,1.0131 6.2122,1.684 6.2121,2.3481 6.2121,3.0028 6.2121,3.6453 6.2121,4.2732 6.2122,4.8838 6.2121,5.4749 6.2121,6.0438 6.2121,6.5884 6.2122,7.1065 6.2121,7.596 6.2121,8.0549 6.2121,8.4813 6.2121,8.8737 6.2122,9.2302 6.2121,9.5497 6.2121,9.8305 6.2121,10.072 6.2121,10.2728 6.2122,10.4322 6.2121,10.5497 6.2121,10.6246 6.2121,10.6568 6.2121,10.646 6.2122,10.5925 6.2121,10.4963 6.2121,10.3577 6.2121,10.1774 6.2121,9.9563 6.2122,9.695 6.2121,9.3947 6.2121,9.0565 6.2121,8.6818 6.2122,8.2723 6.2121,7.8294 6.2121,7.355 6.2121,6.8509 6.2122,6.3193 6.2121,5.7622 6.2121,5.182 6.2121,4.5808 6.2121,3.9612 6.2121,3.3257 6.2122,2.6768 6.2121,2.017 6.2121,1.3493 6.2122,0.676 h 6.2121 l 6.2121,-0.676 6.2121,-1.3493 6.2121,-2.017 6.2122,-2.6768 6.2121,-3.3257 6.2121,-3.9612 6.2121,-4.5808 6.2121,-5.182 6.2121,-5.7622 6.2122,-6.3193 6.2121,-6.8509 6.2121,-7.355 6.2121,-7.8294 6.2122,-8.2723 6.2121,-8.6818 6.2121,-9.0565 6.2122,-9.3947 6.2121,-9.695 6.2121,-9.9563 6.212,-10.1774 6.2122,-10.3577 6.2121,-10.4963 6.2122,-10.5925 6.2121,-10.646 6.2121,-10.6568 6.2121,-10.6246 6.2121,-10.5497 6.2122,-10.4322 6.2121,-10.2728 6.2121,-10.072 6.2121,-9.8305 6.2122,-9.5497 6.2121,-9.2302 6.2121,-8.8737 6.2121,-8.4813 6.2121,-8.0549 6.2121,-7.596 6.2121,-7.1065 6.2122,-6.5884 6.2121,-6.0438 6.2121,-5.4749 6.2121,-4.8838 6.2122,-4.2732 6.2121,-3.6453 6.2122,-3.0028 6.212,-2.3481 6.2121,-1.684 6.2122,-1.0131 L 718,68.5385"
         style="fill:none;fill-rule:evenodd"
         id="path225" />
    </g>
    <g
       style="color-interpolation:linearRGB;stroke-width:2.6667;stroke-linecap:butt;stroke-linejoin:bevel;stroke-miterlimit:1;stroke-dasharray:8, 8;color-rendering:optimizeQuality;image-rendering:optimizeQuality;text-rendering:geometricPrecision"
       id="g231">
      <path
         d="m 103,404.4615 6.2121,-0.3381 6.2121,-1.0131 6.2122,-1.684 6.2121,-2.3481 6.2121,-3.0028 6.2121,-3.6453 6.2121,-4.2732 6.2122,-4.8838 6.2121,-5.4749 6.2121,-6.0438 6.2121,-6.5884 6.2122,-7.1065 6.2121,-7.596 6.2121,-8.0549 6.2121,-8.4814 6.2121,-8.8736 6.2122,-9.2302 6.2121,-9.5497 6.2121,-9.8305 6.2121,-10.072 6.2121,-10.2728 6.2122,-10.4322 6.2121,-10.5497 6.2121,-10.6246 6.2121,-10.6568 6.2121,-10.646 6.2122,-10.5925 6.2121,-10.4962 6.2121,-10.3578 6.2121,-10.1774 6.2121,-9.9563 6.2122,-9.695 6.2121,-9.3947 6.2121,-9.0565 6.2121,-8.6818 6.2122,-8.2723 6.2121,-7.8294 6.2121,-7.355 6.2121,-6.8509 6.2122,-6.3193 6.2121,-5.7622 6.2121,-5.182 6.2121,-4.5808 6.2121,-3.9612 6.2121,-3.3257 6.2122,-2.6768 6.2121,-2.0171 6.2121,-1.3492 6.2122,-0.676 h 6.2121 l 6.2121,0.676 6.2121,1.3492 6.2121,2.0171 6.2122,2.6768 6.2121,3.3257 6.2121,3.9612 6.2121,4.5808 6.2121,5.182 6.2121,5.7622 6.2122,6.3193 6.2121,6.8509 6.2121,7.355 6.2121,7.8294 6.2122,8.2723 6.2121,8.6818 6.2121,9.0565 6.2122,9.3947 6.2121,9.695 6.2121,9.9563 6.212,10.1774 6.2122,10.3578 6.2121,10.4962 6.2122,10.5925 6.2121,10.646 6.2121,10.6568 6.2121,10.6246 6.2121,10.5497 6.2122,10.4322 6.2121,10.2728 6.2121,10.072 6.2121,9.8305 6.2122,9.5497 6.2121,9.2302 6.2121,8.8736 6.2121,8.4814 6.2121,8.0549 6.2121,7.596 6.2121,7.1065 6.2122,6.5884 6.2121,6.0438 6.2121,5.4749 6.2121,4.8838 6.2122,4.2732 6.2121,3.6453 6.2122,3.0028 6.212,2.3481 6.2121,1.684 6.2122,1.0131 6.2121,0.3381"
         style="fill:none;fill-rule:evenodd"
         id="path229" />
    </g>
    <g
       style="color-interpolation:linearRGB;fill:#77ac30;stroke:#77ac30;stroke-width:3.3333;stroke-linecap:butt;stroke-linejoin:bevel;stroke-miterlimit:1;stroke-dasharray:3, 3;color-rendering:optimizeQuality;image-rendering:optimizeQuality;text-rendering:geometricPrecision"
       id="g235">
      <path
         d="m 103,236.5 h 6.2121 6.2121 6.2122 6.2121 6.2121 6.2121 6.2121 6.2122 6.2121 6.2121 6.2121 6.2122 6.2121 6.2121 6.2121 6.2121 6.2122 6.2121 6.2121 6.2121 6.2121 6.2122 6.2121 6.2121 6.2121 6.2121 6.2122 6.2121 6.2121 6.2121 6.2121 6.2122 6.2121 6.2121 6.2121 6.2122 6.2121 6.2121 6.2121 6.2122 6.2121 6.2121 6.2121 6.2121 6.2121 6.2122 6.2121 6.2121 6.2122 6.2121 6.2121 6.2121 6.2121 6.2122 6.2121 6.2121 6.2121 6.2121 6.2121 6.2122 6.2121 6.2121 6.2121 6.2122 6.2121 6.2121 6.2122 6.2121 6.2121 6.212 6.2122 6.2121 6.2122 6.2121 6.2121 6.2121 6.2121 6.2122 6.2121 6.2121 6.2121 6.2122 6.2121 6.2121 6.2121 6.2121 6.2121 6.2121 6.2122 6.2121 6.2121 6.2121 6.2122 6.2121 6.2122 6.212 6.2121 6.2122 H 718"
         style="fill:none;fill-rule:evenodd"
         id="path233" />
    </g>
  </g>
  <rect
     style="fill:#ffffff;stroke:#0000ff;stroke-width:0;stroke-linejoin:bevel"
     id="rect1151"
     width="118.87513"
     height="77.915855"
     x="586.70056"
     y="326.72281" />
  <line
     y2="340.86493"
     style="font-style:normal;font-weight:normal;font-size:12px;font-family:Dialog;color-interpolation:linearRGB;fill:none;fill-opacity:1;stroke:#ff0000;stroke-width:2.6667;stroke-linecap:butt;stroke-linejoin:round;stroke-miterlimit:10;stroke-dasharray:none;stroke-dashoffset:0;stroke-opacity:1;color-rendering:optimizeQuality;image-rendering:optimizeQuality;shape-rendering:auto;text-rendering:geometricPrecision"
     x1="590.72638"
     x2="630.73779"
     y1="340.86493"
     id="line515" />
  <line
     y2="365.62988"
     style="font-style:normal;font-weight:normal;font-size:12px;font-family:Dialog;color-interpolation:linearRGB;fill:none;fill-opacity:1;stroke:#020000;stroke-width:2.667;stroke-linecap:butt;stroke-linejoin:round;stroke-miterlimit:10;stroke-dasharray:8.001, 2.667;stroke-dashoffset:0;stroke-opacity:1;color-rendering:optimizeQuality;image-rendering:optimizeQuality;shape-rendering:auto;text-rendering:geometricPrecision"
     x1="590.72638"
     x2="630.73779"
     y1="365.62988"
     id="line547" />
  <path
     style="font-style:normal;font-weight:normal;font-size:12px;font-family:Dialog;color-interpolation:linearRGB;fill:none;fill-opacity:1;fill-rule:evenodd;stroke:#262626;stroke-width:0.751094;stroke-linecap:butt;stroke-linejoin:miter;stroke-miterlimit:10;stroke-dasharray:none;stroke-dashoffset:0;stroke-opacity:1;color-rendering:optimizeQuality;image-rendering:optimizeQuality;shape-rendering:auto;text-rendering:geometricPrecision"
     d="M 586.70057,405.19959 V 326.7228 h 118.28818 v 78.47679 z"
     id="path559" />
  <path
     style="font-style:normal;font-weight:normal;font-size:36.6667px;font-family:Dialog;color-interpolation:linearRGB;fill:#262626;fill-opacity:1;stroke:none;stroke-width:0.606719;stroke-linecap:square;stroke-linejoin:miter;stroke-miterlimit:10;stroke-dasharray:none;stroke-dashoffset:0;stroke-opacity:1;color-rendering:optimizeQuality;image-rendering:optimizeQuality;shape-rendering:auto;text-rendering:geometricPrecision"
     d="m 649.17786,351.24517 v -9.33784 q 0,-0.41711 -0.12801,-0.60671 -0.12796,-0.1896 -0.36495,-0.23225 -0.23704,-0.0427 -0.73946,-0.0427 v -0.55933 l 2.3321,-0.17061 v 4.93906 q 0.26544,-0.2939 0.61619,-0.51189 0.35074,-0.21806 0.74893,-0.33182 0.39813,-0.11375 0.81524,-0.11375 0.71102,0 1.31774,0.28437 0.60672,0.28442 1.0523,0.78212 0.44551,0.49768 0.69675,1.15179 0.25124,0.65416 0.25124,1.34619 0,0.95746 -0.46929,1.7775 -0.46924,0.81999 -1.27502,1.31294 -0.80585,0.49296 -1.76331,0.49296 -0.59726,0 -1.16126,-0.30809 -0.56407,-0.3081 -0.9338,-0.81998 l -0.54034,0.948 z m 1.14707,-1.54526 q 0.26544,0.57827 0.7584,0.94327 0.49295,0.36494 1.0902,0.36494 0.81525,0 1.32248,-0.46924 0.50715,-0.46923 0.70622,-1.18498 0.19906,-0.71575 0.19906,-1.51207 0,-1.33665 -0.35074,-2.02875 -0.15169,-0.30335 -0.41712,-0.56879 -0.26545,-0.26544 -0.59247,-0.41232 -0.32707,-0.14695 -0.68735,-0.14695 -0.63511,0 -1.17552,0.33175 -0.54034,0.33182 -0.85316,0.90061 z"
     id="path51-3" />
  <path
     style="font-style:normal;font-weight:normal;font-size:36.6667px;font-family:Dialog;color-interpolation:linearRGB;fill:#262626;fill-opacity:1;stroke:none;stroke-width:0.606719;stroke-linecap:square;stroke-linejoin:miter;stroke-miterlimit:10;stroke-dasharray:none;stroke-dashoffset:0;stroke-opacity:1;color-rendering:optimizeQuality;image-rendering:optimizeQuality;shape-rendering:auto;text-rendering:geometricPrecision"
     d="m 660.54651,351.42524 q -0.95753,0 -1.76332,-0.50716 -0.80578,-0.50715 -1.26555,-1.35092 -0.45977,-0.8437 -0.45977,-1.78224 0,-0.91954 0.42185,-1.75378 0.42185,-0.83423 1.17078,-1.34612 0.74888,-0.51196 1.67795,-0.51196 0.72048,0 1.25609,0.24178 0.53562,0.24172 0.88163,0.67303 0.346,0.43138 0.52614,1.01911 0.18013,0.58779 0.18013,1.28928 0,0.20859 -0.16114,0.20859 h -4.56938 v 0.17061 q 0,1.30827 0.52614,2.24674 0.52615,0.93853 1.7206,0.93853 0.48349,0 0.89588,-0.21805 0.41239,-0.21799 0.71574,-0.60193 0.30337,-0.38399 0.41713,-0.82004 0.009,-0.0569 0.0521,-0.0996 0.0427,-0.0427 0.0996,-0.0427 h 0.14222 q 0.16114,0 0.16114,0.19906 -0.22752,0.90061 -0.96699,1.47414 -0.7394,0.57353 -1.65895,0.57353 z m -2.09513,-4.21858 h 3.60239 q 0,-0.58773 -0.16587,-1.19918 -0.16588,-0.61151 -0.54987,-1.01437 -0.38394,-0.40292 -1.00958,-0.40292 -0.89115,0 -1.38411,0.83423 -0.49296,0.83425 -0.49296,1.78224 z"
     id="path53" />
  <path
     style="font-style:normal;font-weight:normal;font-size:36.6667px;font-family:Dialog;color-interpolation:linearRGB;fill:#262626;fill-opacity:1;stroke:none;stroke-width:0.606719;stroke-linecap:square;stroke-linejoin:miter;stroke-miterlimit:10;stroke-dasharray:none;stroke-dashoffset:0;stroke-opacity:1;color-rendering:optimizeQuality;image-rendering:optimizeQuality;shape-rendering:auto;text-rendering:geometricPrecision"
     d="m 665.15448,349.34917 v -4.35133 h -1.30827 v -0.40765 q 1.0333,0 1.51679,-0.9622 0.4835,-0.96226 0.4835,-2.09033 h 0.45504 v 2.91031 h 2.22781 v 0.54987 h -2.22781 v 4.32287 q 0,0.65411 0.21805,1.14707 0.218,0.49295 0.7868,0.49295 0.5404,0 0.78212,-0.52141 0.24172,-0.52135 0.24172,-1.11861 v -0.92907 h 0.45503 v 0.95753 q 0,0.49296 -0.18481,0.97639 -0.18486,0.48349 -0.53567,0.79159 -0.35074,0.30809 -0.86263,0.30809 -0.94799,0 -1.49787,-0.5688 -0.5498,-0.5688 -0.5498,-1.50727 z"
     id="path55-1" />
  <path
     style="font-style:normal;font-weight:normal;font-size:36.6667px;font-family:Dialog;color-interpolation:linearRGB;fill:#262626;fill-opacity:1;stroke:none;stroke-width:0.606719;stroke-linecap:square;stroke-linejoin:miter;stroke-miterlimit:10;stroke-dasharray:none;stroke-dashoffset:0;stroke-opacity:1;color-rendering:optimizeQuality;image-rendering:optimizeQuality;shape-rendering:auto;text-rendering:geometricPrecision"
     d="m 672.65486,351.24517 -2.03822,-5.73544 q -0.14215,-0.35074 -0.40285,-0.43132 -0.26071,-0.0806 -0.76314,-0.0806 v -0.54987 h 3.25159 v 0.54987 q -0.92901,0 -0.92901,0.38866 0,0.0285 0.005,0.0522 0.005,0.0237 0.005,0.0711 l 1.5168,4.24703 1.30827,-3.70663 -0.19913,-0.5404 q -0.12322,-0.35074 -0.39339,-0.43132 -0.27018,-0.0806 -0.76314,-0.0806 v -0.54987 h 3.10944 v 0.54987 q -0.92907,0 -0.92907,0.38866 0,0.0664 0.01,0.12323 l 1.58311,4.43663 1.4315,-4.01952 q 0.0285,-0.12322 0.0285,-0.21799 0,-0.33181 -0.27964,-0.52141 -0.2797,-0.1896 -0.63044,-0.1896 v -0.54987 h 2.68285 v 0.54987 q -0.47403,0 -0.82004,0.25124 -0.34602,0.25118 -0.50716,0.67776 l -1.87707,5.31833 q -0.0569,0.18007 -0.23698,0.18007 h -0.12322 q -0.1896,0 -0.23705,-0.18007 l -1.6021,-4.50302 -1.59264,4.50302 q -0.0759,0.18007 -0.24645,0.18007 h -0.11376 q -0.1896,0 -0.24651,-0.18007 z"
     id="path57" />
  <path
     style="font-style:normal;font-weight:normal;font-size:36.6667px;font-family:Dialog;color-interpolation:linearRGB;fill:#262626;fill-opacity:1;stroke:none;stroke-width:0.606719;stroke-linecap:square;stroke-linejoin:miter;stroke-miterlimit:10;stroke-dasharray:none;stroke-dashoffset:0;stroke-opacity:1;color-rendering:optimizeQuality;image-rendering:optimizeQuality;shape-rendering:auto;text-rendering:geometricPrecision"
     d="m 683.90512,351.42524 q -0.95746,0 -1.76324,-0.50716 -0.80584,-0.50715 -1.26562,-1.35092 -0.45977,-0.8437 -0.45977,-1.78224 0,-0.91954 0.42186,-1.75378 0.42184,-0.83423 1.17078,-1.34612 0.74893,-0.51196 1.67794,-0.51196 0.72048,0 1.25609,0.24178 0.53568,0.24172 0.88169,0.67303 0.34601,0.43138 0.52614,1.01911 0.18008,0.58779 0.18008,1.28928 0,0.20859 -0.16114,0.20859 h -4.56933 v 0.17061 q 0,1.30827 0.52609,2.24674 0.52615,0.93853 1.72065,0.93853 0.4835,0 0.89582,-0.21805 0.41239,-0.21799 0.71575,-0.60193 0.30336,-0.38399 0.41712,-0.82004 0.01,-0.0569 0.0522,-0.0996 0.0427,-0.0427 0.0995,-0.0427 h 0.14222 q 0.16114,0 0.16114,0.19906 -0.22752,0.90061 -0.96693,1.47414 -0.73946,0.57353 -1.65901,0.57353 z m -2.09505,-4.21858 h 3.60239 q 0,-0.58773 -0.16594,-1.19918 -0.16587,-0.61151 -0.5498,-1.01437 -0.38393,-0.40292 -1.00965,-0.40292 -0.89109,0 -1.38404,0.83423 -0.49296,0.83425 -0.49296,1.78224 z"
     id="path59-3" />
  <path
     style="font-style:normal;font-weight:normal;font-size:36.6667px;font-family:Dialog;color-interpolation:linearRGB;fill:#262626;fill-opacity:1;stroke:none;stroke-width:0.606719;stroke-linecap:square;stroke-linejoin:miter;stroke-miterlimit:10;stroke-dasharray:none;stroke-dashoffset:0;stroke-opacity:1;color-rendering:optimizeQuality;image-rendering:optimizeQuality;shape-rendering:auto;text-rendering:geometricPrecision"
     d="m 690.82621,351.42524 q -0.95746,0 -1.76324,-0.50716 -0.80585,-0.50715 -1.26562,-1.35092 -0.45977,-0.8437 -0.45977,-1.78224 0,-0.91954 0.42186,-1.75378 0.42184,-0.83423 1.17078,-1.34612 0.74893,-0.51196 1.67794,-0.51196 0.72048,0 1.25615,0.24178 0.53561,0.24172 0.88162,0.67303 0.34601,0.43138 0.52615,1.01911 0.18008,0.58779 0.18008,1.28928 0,0.20859 -0.16115,0.20859 h -4.56932 v 0.17061 q 0,1.30827 0.52614,2.24674 0.52609,0.93853 1.7206,0.93853 0.48349,0 0.89588,-0.21805 0.41233,-0.21799 0.71569,-0.60193 0.30336,-0.38399 0.41712,-0.82004 0.01,-0.0569 0.0522,-0.0996 0.0427,-0.0427 0.0995,-0.0427 h 0.14222 q 0.16114,0 0.16114,0.19906 -0.22752,0.90061 -0.96693,1.47414 -0.73947,0.57353 -1.65901,0.57353 z m -2.09505,-4.21858 h 3.60239 q 0,-0.58773 -0.16588,-1.19918 -0.16593,-0.61151 -0.54987,-1.01437 -0.38393,-0.40292 -1.00964,-0.40292 -0.89109,0 -1.38405,0.83423 -0.49295,0.83425 -0.49295,1.78224 z"
     id="path61" />
  <path
     style="font-style:normal;font-weight:normal;font-size:36.6667px;font-family:Dialog;color-interpolation:linearRGB;fill:#262626;fill-opacity:1;stroke:none;stroke-width:0.606719;stroke-linecap:square;stroke-linejoin:miter;stroke-miterlimit:10;stroke-dasharray:none;stroke-dashoffset:0;stroke-opacity:1;color-rendering:optimizeQuality;image-rendering:optimizeQuality;shape-rendering:auto;text-rendering:geometricPrecision"
     d="m 694.29659,351.24517 v -0.55934 q 0.53088,0 0.88168,-0.0806 0.35075,-0.0806 0.35075,-0.41238 v -4.31341 q 0,-0.41712 -0.12796,-0.60672 -0.12802,-0.1896 -0.36973,-0.23225 -0.24178,-0.0427 -0.73474,-0.0427 v -0.54987 l 2.28472,-0.17061 v 1.53572 q 0.31282,-0.67303 0.93374,-1.10441 0.62098,-0.43131 1.35092,-0.43131 1.09968,0 1.64949,0.52141 0.54987,0.52136 0.54987,1.6021 v 3.792 q 0,0.33182 0.34601,0.41239 0.34602,0.0806 0.88636,0.0806 v 0.55933 h -3.61186 v -0.55933 q 0.54034,0 0.88641,-0.0806 0.34601,-0.0806 0.34601,-0.41239 v -3.74461 q 0,-0.76787 -0.22278,-1.26555 -0.22279,-0.49769 -0.92433,-0.49769 -0.91008,0 -1.50255,0.72994 -0.59252,0.72994 -0.59252,1.65901 v 3.1189 q 0,0.33182 0.35074,0.41239 0.35081,0.0806 0.88169,0.0806 v 0.55933 z"
     id="path63-4" />
  <path
     style="font-style:normal;font-weight:normal;font-size:36.6667px;font-family:Dialog;color-interpolation:linearRGB;fill:#262626;fill-opacity:1;stroke:none;stroke-width:0.606722;stroke-linecap:square;stroke-linejoin:miter;stroke-miterlimit:10;stroke-dasharray:none;stroke-dashoffset:0;stroke-opacity:1;color-rendering:optimizeQuality;image-rendering:optimizeQuality;shape-rendering:auto;text-rendering:geometricPrecision"
     d="m 648.05936,375.8137 v -2.57858 q 0,-0.12322 0.14216,-0.12322 h 0.1896 q 0.0948,0 0.12329,0.12322 0.44551,2.29414 2.12352,2.29414 0.74888,0 1.2561,-0.34128 0.50716,-0.34128 0.50716,-1.04277 0,-0.51195 -0.3934,-0.87217 -0.39346,-0.36027 -0.9338,-0.48349 l -1.0523,-0.20853 q -0.53089,-0.12329 -0.96694,-0.36027 -0.43611,-0.23699 -0.71575,-0.63518 -0.27964,-0.39813 -0.27964,-0.91955 0,-0.69203 0.36495,-1.13287 0.365,-0.44079 0.95273,-0.63991 0.5878,-0.19907 1.26089,-0.19907 0.81526,0 1.41251,0.43611 l 0.45505,-0.39819 q 0,-0.0379 0.0758,-0.0379 h 0.11376 q 0.0474,0 0.0853,0.0426 0.0379,0.0427 0.0379,0.0901 v 2.06662 q 0,0.14222 -0.12322,0.14222 h -0.1896 q -0.14222,0 -0.14222,-0.14222 0,-0.82478 -0.45504,-1.3272 -0.45504,-0.50243 -1.27982,-0.50243 -0.71096,0 -1.23238,0.26071 -0.52141,0.26071 -0.52141,0.90535 0,0.43605 0.37447,0.71575 0.37446,0.27964 0.87689,0.40286 l 1.07123,0.20859 q 0.54041,0.12323 1.00491,0.41239 0.46451,0.28911 0.73942,0.73942 0.27496,0.4503 0.27496,1.00964 0,0.5688 -0.19912,0.99066 -0.19907,0.42185 -0.54981,0.69676 -0.35075,0.2749 -0.82478,0.40766 -0.47397,0.13269 -1.00486,0.13269 -0.98592,0 -1.67801,-0.66358 l -0.57827,0.62566 q 0,0.0379 -0.0853,0.0379 h -0.0948 q -0.14216,0 -0.14216,-0.13269 z"
     id="path69-5" />
  <path
     style="font-style:normal;font-weight:normal;font-size:36.6667px;font-family:Dialog;color-interpolation:linearRGB;fill:#262626;fill-opacity:1;stroke:none;stroke-width:0.606722;stroke-linecap:square;stroke-linejoin:miter;stroke-miterlimit:10;stroke-dasharray:none;stroke-dashoffset:0;stroke-opacity:1;color-rendering:optimizeQuality;image-rendering:optimizeQuality;shape-rendering:auto;text-rendering:geometricPrecision"
     d="m 654.31558,374.22105 q 0,-0.93854 0.73947,-1.531 0.73942,-0.59253 1.77279,-0.83425 1.03331,-0.24178 1.97184,-0.24178 v -0.64464 q 0,-0.45504 -0.20385,-0.88163 -0.2038,-0.42658 -0.57827,-0.70155 -0.37447,-0.27491 -0.82951,-0.27491 -1.0523,0 -1.59265,0.47404 0.2939,0 0.49296,0.22278 0.19907,0.22273 0.19907,0.52609 0,0.31289 -0.22279,0.54041 -0.22273,0.22752 -0.53561,0.22752 -0.31283,0 -0.53562,-0.22752 -0.22279,-0.22752 -0.22279,-0.54041 0,-0.83424 0.75367,-1.2371 0.75367,-0.40293 1.66376,-0.40293 0.63518,0 1.28455,0.27491 0.64938,0.27496 1.06176,0.78212 0.41239,0.50716 0.41239,1.18973 v 3.54556 q 0,0.31283 0.12796,0.5688 0.12802,0.25598 0.40293,0.25598 0.26544,0 0.39339,-0.26071 0.12802,-0.26071 0.12802,-0.56407 v -1.00491 h 0.46451 v 1.00491 q 0,0.35075 -0.18487,0.6731 -0.18487,0.32229 -0.49769,0.51189 -0.31283,0.1896 -0.6731,0.1896 -0.46451,0 -0.80106,-0.36021 -0.33654,-0.36027 -0.37447,-0.85323 -0.29389,0.59725 -0.86269,0.948 -0.56881,0.35075 -1.21345,0.35075 -0.60672,0 -1.18499,-0.18008 -0.57827,-0.18014 -0.96693,-0.55934 -0.38873,-0.3792 -0.38873,-0.98592 z m 1.27982,0 q 0,0.54981 0.40766,0.92901 0.40766,0.3792 0.95747,0.3792 0.51195,0 0.92907,-0.25591 0.41712,-0.25598 0.66357,-0.69209 0.24651,-0.43605 0.24651,-0.92901 v -1.64003 q -0.72048,0 -1.46942,0.23698 -0.74893,0.23699 -1.2419,0.73468 -0.49296,0.4977 -0.49296,1.23717 z"
     id="path71-2" />
  <path
     style="font-style:normal;font-weight:normal;font-size:36.6667px;font-family:Dialog;color-interpolation:linearRGB;fill:#262626;fill-opacity:1;stroke:none;stroke-width:0.606722;stroke-linecap:square;stroke-linejoin:miter;stroke-miterlimit:10;stroke-dasharray:none;stroke-dashoffset:0;stroke-opacity:1;color-rendering:optimizeQuality;image-rendering:optimizeQuality;shape-rendering:auto;text-rendering:geometricPrecision"
     d="m 661.94069,375.76631 v -0.55934 q 0.53088,0 0.88169,-0.0806 0.35074,-0.0806 0.35074,-0.41239 v -4.31343 q 0,-0.41712 -0.12796,-0.60672 -0.12801,-0.1896 -0.36973,-0.23226 -0.24178,-0.0427 -0.73474,-0.0427 V 368.969 l 2.28473,-0.17061 v 1.53573 q 0.31283,-0.67303 0.93375,-1.10441 0.62098,-0.43132 1.35092,-0.43132 1.82017,0 2.133,1.47888 0.32235,-0.66363 0.92907,-1.07123 0.60672,-0.40765 1.32721,-0.40765 0.72048,0 1.20871,0.22752 0.48817,0.22752 0.73468,0.70149 0.24645,0.47403 0.24645,1.19452 v 3.79201 q 0,0.33182 0.35081,0.41239 0.35074,0.0806 0.88163,0.0806 v 0.55934 h -3.61188 v -0.55934 q 0.54034,0 0.88636,-0.0806 0.34601,-0.0806 0.34601,-0.41239 v -3.74463 q 0,-0.79632 -0.22279,-1.27982 -0.22279,-0.48344 -0.91481,-0.48344 -0.91009,0 -1.50255,0.72995 -0.59253,0.72995 -0.59253,1.65902 v 3.11892 q 0,0.33182 0.34602,0.41239 0.34601,0.0806 0.88636,0.0806 v 0.55934 h -3.61188 v -0.55934 q 0.54035,0 0.88642,-0.0806 0.34601,-0.0806 0.34601,-0.41239 v -3.74463 q 0,-0.76787 -0.22278,-1.26556 -0.22279,-0.4977 -0.92435,-0.4977 -0.91008,0 -1.50254,0.72995 -0.59253,0.72995 -0.59253,1.65902 v 3.11892 q 0,0.33182 0.35075,0.41239 0.3508,0.0806 0.88169,0.0806 v 0.55934 z"
     id="path73-2" />
  <path
     style="font-style:normal;font-weight:normal;font-size:36.6667px;font-family:Dialog;color-interpolation:linearRGB;fill:#262626;fill-opacity:1;stroke:none;stroke-width:0.606722;stroke-linecap:square;stroke-linejoin:miter;stroke-miterlimit:10;stroke-dasharray:none;stroke-dashoffset:0;stroke-opacity:1;color-rendering:optimizeQuality;image-rendering:optimizeQuality;shape-rendering:auto;text-rendering:geometricPrecision"
     d="m 678.36861,375.94639 q -0.95753,0 -1.76332,-0.50716 -0.80579,-0.50716 -1.26556,-1.35093 -0.45978,-0.84371 -0.45978,-1.78225 0,-0.91955 0.42186,-1.75379 0.42185,-0.83424 1.17079,-1.34614 0.74888,-0.51195 1.67795,-0.51195 0.72048,0 1.2561,0.24178 0.53561,0.24172 0.88163,0.67304 0.34601,0.43138 0.52614,1.01911 0.18014,0.58779 0.18014,1.28928 0,0.2086 -0.16114,0.2086 h -4.56941 v 0.17061 q 0,1.30827 0.52615,2.24675 0.52615,0.93854 1.7206,0.93854 0.4835,0 0.89589,-0.21806 0.41239,-0.21799 0.71575,-0.60193 0.30336,-0.38399 0.41712,-0.82004 0.009,-0.0569 0.0521,-0.0996 0.0426,-0.0427 0.0996,-0.0427 h 0.14222 q 0.16114,0 0.16114,0.19907 -0.22752,0.90062 -0.96699,1.47415 -0.73942,0.57354 -1.65896,0.57354 z m -2.09514,-4.21861 h 3.60242 q 0,-0.58773 -0.16588,-1.19918 -0.16588,-0.61152 -0.54981,-1.01438 -0.384,-0.40293 -1.00965,-0.40293 -0.89115,0 -1.38412,0.83425 -0.49296,0.83424 -0.49296,1.78224 z"
     id="path75-2" />
  <path
     style="font-style:normal;font-weight:normal;font-size:20.4px;font-family:mwa_cmmi10;color-interpolation:linearRGB;fill:#000000;fill-opacity:1;stroke:none;stroke-width:1;stroke-linecap:square;stroke-linejoin:miter;stroke-miterlimit:10;stroke-dasharray:none;stroke-dashoffset:0;stroke-opacity:1;color-rendering:optimizeQuality;image-rendering:optimizeQuality;shape-rendering:auto;text-rendering:geometricPrecision"
     d="m 636.50794,341.63497 q 0,1.2032 0.4609,2.1094 0.461,0.9063 1.3438,1.4219 0.8828,0.5156 2.0859,0.5156 1.2656,0 2.4297,-0.6406 1.164,-0.6406 1.9922,-1.7266 0.8281,-1.0859 1.125,-2.289 0.0468,-0.125 0.1562,-0.125 h 0.25 q 0.0782,0 0.125,0.0546 0.0469,0.0547 0.0469,0.1329 0,0.0156 -0.0156,0.0468 -0.3438,1.3907 -1.3281,2.6094 -0.9844,1.2188 -2.3516,1.9297 -1.3672,0.7109 -2.8047,0.7109 -1.5625,0 -2.8047,-0.7031 -1.2422,-0.7031 -1.9297,-1.9531 -0.6875,-1.25 -0.6875,-2.8281 0,-1.6719 0.75,-3.3204 0.75,-1.6484 2.0235,-2.9296 1.2734,-1.2813 2.8984,-2.0469 1.625,-0.7656 3.2969,-0.7656 0.6562,0 1.2656,0.2031 0.6094,0.2031 1.125,0.6172 0.5156,0.414 0.8438,0.9453 l 1.5937,-1.7188 q 0,-0.0468 0.0937,-0.0468 h 0.1094 q 0.0782,0 0.1328,0.0703 0.0547,0.0703 0.0547,0.1484 l -1.3593,5.3906 q 0,0.1407 -0.1563,0.1407 h -0.3594 q -0.1562,0 -0.1562,-0.2188 0.0781,-0.4531 0.0781,-1.0625 0,-0.9687 -0.3359,-1.8359 -0.336,-0.8672 -1.0313,-1.3985 -0.6953,-0.5312 -1.7109,-0.5312 -1.625,0 -2.9844,0.8203 -1.3594,0.8203 -2.2969,2.1562 -0.9375,1.336 -1.4531,2.961 -0.5156,1.625 -0.5156,3.1562 z"
     id="path489" />
  <path
     style="font-style:normal;font-weight:normal;font-size:20.4px;font-family:mwa_cmmi10;color-interpolation:linearRGB;fill:#000000;fill-opacity:1;stroke:none;stroke-width:1;stroke-linecap:square;stroke-linejoin:miter;stroke-miterlimit:10;stroke-dasharray:none;stroke-dashoffset:0;stroke-opacity:1;color-rendering:optimizeQuality;image-rendering:optimizeQuality;shape-rendering:auto;text-rendering:geometricPrecision"
     d="m 636.50794,367.63497 q 0,1.2032 0.4609,2.1094 0.461,0.9063 1.3438,1.4219 0.8828,0.5156 2.0859,0.5156 1.2656,0 2.4297,-0.6406 1.164,-0.6406 1.9922,-1.7266 0.8281,-1.0859 1.125,-2.289 0.0468,-0.125 0.1562,-0.125 h 0.25 q 0.0782,0 0.125,0.0546 0.0469,0.0547 0.0469,0.1329 0,0.0156 -0.0156,0.0468 -0.3438,1.3907 -1.3281,2.6094 -0.9844,1.2188 -2.3516,1.9297 -1.3672,0.7109 -2.8047,0.7109 -1.5625,0 -2.8047,-0.7031 -1.2422,-0.7031 -1.9297,-1.9531 -0.6875,-1.25 -0.6875,-2.8281 0,-1.6719 0.75,-3.3204 0.75,-1.6484 2.0235,-2.9296 1.2734,-1.2813 2.8984,-2.0469 1.625,-0.7656 3.2969,-0.7656 0.6562,0 1.2656,0.2031 0.6094,0.2031 1.125,0.6172 0.5156,0.414 0.8438,0.9453 l 1.5937,-1.7188 q 0,-0.0468 0.0937,-0.0468 h 0.1094 q 0.0782,0 0.1328,0.0703 0.0547,0.0703 0.0547,0.1484 l -1.3593,5.3906 q 0,0.1407 -0.1563,0.1407 h -0.3594 q -0.1562,0 -0.1562,-0.2188 0.0781,-0.4531 0.0781,-1.0625 0,-0.9687 -0.3359,-1.8359 -0.336,-0.8672 -1.0313,-1.3985 -0.6953,-0.5312 -1.7109,-0.5312 -1.625,0 -2.9844,0.8203 -1.3594,0.8203 -2.2969,2.1562 -0.9375,1.336 -1.4531,2.961 -0.5156,1.625 -0.5156,3.1562 z"
     id="path489-0" />
  <path
     d="m 590.72638,387.62988 h 0.39973 0.39972 0.39974 0.39972 0.39973 0.39973 0.39972 0.39974 0.39973 0.39972 0.39973 0.39973 0.39973 0.39972 0.39973 0.39973 0.39973 0.39973 0.39972 0.39973 0.39973 0.39973 0.39973 0.39973 0.39972 0.39973 0.39974 0.39972 0.39973 0.39972 0.39973 0.39973 0.39973 0.39973 0.39972 0.39974 0.39973 0.39972 0.39973 0.39973 0.39973 0.39972 0.39973 0.39973 0.39972 0.39973 0.39973 0.39974 0.39973 0.39973 0.39971 0.39974 0.39973 0.39973 0.39973 0.39971 0.39973 0.39974 0.39973 0.39973 0.39971 0.39974 0.39972 0.39974 0.39973 0.39972 0.39974 0.39972 0.39973 0.39971 0.39973 0.39974 0.39973 0.39973 0.39973 0.39972 0.39973 0.39973 0.39973 0.39973 0.39971 0.39974 0.39973 0.39973 0.39973 0.39972 0.39973 0.39973 0.39973 0.39973 0.39972 0.39973 0.39973 0.39973 0.39973 0.39972 0.39973 0.39973 0.39973"
     style="font-style:normal;font-weight:normal;font-size:12px;font-family:Dialog;color-interpolation:linearRGB;fill:none;fill-opacity:1;fill-rule:evenodd;stroke:#77ac30;stroke-width:4;stroke-linecap:butt;stroke-linejoin:bevel;stroke-miterlimit:1;stroke-dasharray:3.60004, 3.60004;stroke-dashoffset:0;stroke-opacity:1;color-rendering:optimizeQuality;image-rendering:optimizeQuality;shape-rendering:auto;text-rendering:geometricPrecision"
     id="path233-5" />
  <text
     xml:space="preserve"
     style="font-style:normal;font-weight:normal;font-size:21.3333px;line-height:125%;font-family:sans-serif;letter-spacing:0px;word-spacing:0px;fill:#000000;fill-opacity:1;stroke:none;stroke-width:1px;stroke-linecap:butt;stroke-linejoin:miter;stroke-opacity:1"
     x="633.50452"
     y="395.84479"
     id="text1175"><tspan
       sodipodi:role="line"
       id="tspan1173"
       x="633.50452"
       y="395.84479"
       style="font-style:normal;font-variant:normal;font-weight:normal;font-stretch:normal;font-size:21.3333px;font-family:cmr10;-inkscape-font-specification:cmr10">Dist.</tspan></text>
</svg>
